<svg width="18" height="18" viewBox="0 0 18 18" fill="none" xmlns="http://www.w3.org/2000/svg">
<path d="M8.99805 18C4.13837 18 0.1816 14.1465 0.0087883 9.32813L0.00390549 9.32813L0.00390548 9.1543C0.00304144 9.10295 1.12505e-06 9.05155 -7.86805e-07 9C-7.91306e-07 8.94851 0.00304524 8.89699 0.00390545 8.8457L0.00390479 1.33399C0.00390854 0.597746 0.600726 0.00121269 1.33691 0.000978019L8.95898 0.000977353C8.97195 0.000922038 8.98507 7.87769e-07 8.99805 7.86634e-07C9.01107 7.85495e-07 9.02409 0.000922034 9.03711 0.000977346L9.58398 0.000977298L9.58398 0.0214851C14.2803 0.323572 17.9961 4.22649 17.9961 9C17.996 13.9704 13.9675 17.9999 8.99805 18Z" fill="url(#paint0_linear_473_576)"/>
<defs>
<linearGradient id="paint0_linear_473_576" x1="16.5248" y1="-10.6158" x2="0.358593" y2="-9.64878" gradientUnits="userSpaceOnUse">
<stop offset="0.18941" stop-color="#FA785B"/>
<stop offset="1" stop-color="#FF3761"/>
</linearGradient>
</defs>
</svg>
