<svg width="225" height="50" viewBox="0 0 225 50" fill="none" xmlns="http://www.w3.org/2000/svg">
<path d="M58.7104 40.5383C84.7608 38.8046 143.293 35.5482 169.017 36.392" stroke="url(#paint0_linear_364_213)" stroke-width="1.69322" stroke-linecap="round"/>
<path d="M56.1821 43.4225C82.2325 41.6889 140.764 38.4324 166.489 39.2763" stroke="url(#paint1_linear_364_213)" stroke-width="1.69322" stroke-linecap="round"/>
<rect y="2.77148" width="46.391" height="46.391" rx="16.2979" fill="#1E1E1E"/>
<ellipse cx="23.6904" cy="23.7277" rx="3.0865" ry="8.02118" transform="rotate(60.2352 23.6904 23.7277)" fill="#F8F8F6"/>
<ellipse cx="32.022" cy="32.9416" rx="3.14059" ry="7.82769" transform="rotate(140.299 32.022 32.9416)" fill="#F8F8F6"/>
<circle cx="31.1519" cy="14.8291" r="2.80717" fill="#FA785B"/>
<ellipse cx="19.1598" cy="34.1814" rx="2.95465" ry="7.68847" transform="rotate(-126.793 19.1598 34.1814)" fill="#F8F8F6"/>
<line x1="8.90923" y1="35.5776" x2="11.4474" y2="35.5776" stroke="#D1B7FF" stroke-width="0.795019" stroke-linecap="round"/>
<line x1="7.24419" y1="37.6508" x2="9.78234" y2="37.6508" stroke="#D1B7FF" stroke-width="0.795019" stroke-linecap="round"/>
<circle cx="120.399" cy="12.1033" r="2.62083" fill="#FA785B"/>
<path d="M62.2637 36.6748C63.3058 33.3081 64.3478 29.9013 65.3899 26.4544C66.452 23.0075 67.5041 19.6007 68.5462 16.234C69.7286 16.234 70.9209 16.234 72.1233 16.234C73.3458 16.234 74.5482 16.234 75.7305 16.234C76.7726 19.6007 77.8147 23.0075 78.8568 26.4544C79.9189 29.9013 80.971 33.3081 82.0131 36.6748C81.1514 36.6748 80.2696 36.6748 79.3678 36.6748C78.486 36.6748 77.6043 36.6748 76.7225 36.6748C76.5221 36.0335 76.3317 35.3922 76.1514 34.751C75.971 34.0896 75.7806 33.4383 75.5802 32.7971C74.438 32.7971 73.2857 32.7971 72.1233 32.7971C70.9811 32.7971 69.8388 32.7971 68.6965 32.7971C68.4961 33.4383 68.3057 34.0896 68.1254 34.751C67.945 35.3922 67.7546 36.0335 67.5542 36.6748C66.6925 36.6748 65.8107 36.6748 64.9089 36.6748C64.0272 36.6748 63.1454 36.6748 62.2637 36.6748ZM70.0191 28.3181C70.7205 28.3181 71.4219 28.3181 72.1233 28.3181C72.8448 28.3181 73.5562 28.3181 74.2576 28.3181C73.9169 27.1358 73.5662 25.9434 73.2055 24.741C72.8448 23.5386 72.4941 22.3462 72.1534 21.1639C71.8127 22.3462 71.452 23.5386 71.0712 24.741C70.7105 25.9434 70.3598 27.1358 70.0191 28.3181ZM82.3646 26.4544C82.3646 24.9113 82.6051 23.5085 83.0861 22.246C83.5871 20.9635 84.2885 19.8512 85.1903 18.9094C86.0921 17.9675 87.1742 17.236 88.4368 16.715C89.6993 16.1939 91.092 15.9134 92.6151 15.8733C94.1582 15.8332 95.8014 16.0737 97.5449 16.5947C97.5449 17.4364 97.5449 18.2881 97.5449 19.1498C97.5449 19.9915 97.5449 20.8332 97.5449 21.6749C96.3626 21.1138 95.1902 20.7931 94.0279 20.713C92.8656 20.6328 91.8135 20.7931 90.8716 21.1939C89.9297 21.5947 89.1782 22.236 88.6171 23.1178C88.056 23.9795 87.7754 25.0917 87.7754 26.4544C87.7754 27.8171 88.056 28.9394 88.6171 29.8211C89.1782 30.6828 89.9297 31.3141 90.8716 31.7149C91.8135 32.1157 92.8656 32.276 94.0279 32.1959C95.1902 32.1157 96.3626 31.7951 97.5449 31.2339C97.5449 32.0756 97.5449 32.9273 97.5449 33.789C97.5449 34.6307 97.5449 35.4724 97.5449 36.3141C95.8014 36.8351 94.1582 37.0756 92.6151 37.0355C91.092 36.9954 89.6993 36.7149 88.4368 36.1938C87.1742 35.6728 86.0921 34.9413 85.1903 33.9995C84.2885 33.0576 83.5871 31.9554 83.0861 30.6929C82.6051 29.4103 82.3646 27.9975 82.3646 26.4544ZM104.577 36.6748C104.577 34.0896 104.577 31.4844 104.577 28.8592C104.577 26.2139 104.577 23.5987 104.577 21.0136C103.816 21.0136 103.044 21.0136 102.262 21.0136C101.481 21.0136 100.709 21.0136 99.9478 21.0136C99.9478 20.232 99.9478 19.4404 99.9478 18.6388C99.9478 17.8172 99.9478 17.0156 99.9478 16.234C102.333 16.234 104.747 16.234 107.192 16.234C109.637 16.234 112.052 16.234 114.437 16.234C114.437 17.0156 114.437 17.8172 114.437 18.6388C114.437 19.4404 114.437 20.232 114.437 21.0136C113.695 21.0136 112.934 21.0136 112.152 21.0136C111.371 21.0136 110.599 21.0136 109.838 21.0136C109.838 23.5987 109.838 26.2139 109.838 28.8592C109.838 31.4844 109.838 34.0896 109.838 36.6748C108.976 36.6748 108.104 36.6748 107.222 36.6748C106.341 36.6748 105.459 36.6748 104.577 36.6748ZM117.443 36.6748C117.443 33.3081 117.443 29.9013 117.443 26.4544C117.443 23.0075 117.443 19.6007 117.443 16.234C118.324 16.234 119.206 16.234 120.088 16.234C120.97 16.234 121.841 16.234 122.703 16.234C122.703 19.6007 122.703 23.0075 122.703 26.4544C122.703 29.9013 122.703 33.3081 122.703 36.6748C121.841 36.6748 120.97 36.6748 120.088 36.6748C119.206 36.6748 118.324 36.6748 117.443 36.6748ZM135.882 37.1558C134.419 37.1558 133.067 36.8952 131.824 36.3742C130.582 35.8331 129.509 35.0816 128.608 34.1197C127.706 33.1578 127.004 32.0255 126.503 30.7229C126.002 29.4003 125.752 27.9674 125.752 26.4244C125.752 24.8813 126.002 23.4584 126.503 22.1558C127.004 20.8532 127.706 19.731 128.608 18.7891C129.509 17.8272 130.582 17.0857 131.824 16.5647C133.067 16.0236 134.419 15.7531 135.882 15.7531C137.345 15.7531 138.688 16.0236 139.91 16.5647C141.153 17.0857 142.225 17.8272 143.127 18.7891C144.048 19.731 144.76 20.8532 145.261 22.1558C145.762 23.4584 146.012 24.8813 146.012 26.4244C146.012 27.9674 145.762 29.4003 145.261 30.7229C144.76 32.0255 144.048 33.1578 143.127 34.1197C142.225 35.0816 141.153 35.8331 139.91 36.3742C138.688 36.8952 137.345 37.1558 135.882 37.1558ZM135.882 32.286C136.864 32.286 137.706 32.0456 138.407 31.5646C139.109 31.0636 139.65 30.3722 140.03 29.4905C140.431 28.6087 140.632 27.5867 140.632 26.4244C140.632 25.262 140.431 24.25 140.03 23.3883C139.65 22.5266 139.109 21.8552 138.407 21.3743C137.706 20.8733 136.864 20.6228 135.882 20.6228C134.92 20.6228 134.079 20.8633 133.357 21.3442C132.656 21.8252 132.105 22.5065 131.704 23.3883C131.323 24.25 131.133 25.262 131.133 26.4244C131.133 27.5867 131.323 28.6087 131.704 29.4905C132.105 30.3722 132.656 31.0636 133.357 31.5646C134.079 32.0456 134.92 32.286 135.882 32.286ZM148.908 36.6748C148.908 33.3081 148.908 29.9013 148.908 26.4544C148.908 23.0075 148.908 19.6007 148.908 16.234C149.79 16.234 150.672 16.234 151.553 16.234C152.455 16.234 153.337 16.234 154.199 16.234C155.261 18.1378 156.333 20.0617 157.415 22.0055C158.517 23.9494 159.599 25.8733 160.661 27.7771C160.661 25.8733 160.661 23.9494 160.661 22.0055C160.661 20.0617 160.661 18.1378 160.661 16.234C161.523 16.234 162.385 16.234 163.247 16.234C164.108 16.234 164.97 16.234 165.832 16.234C165.832 19.6007 165.832 23.0075 165.832 26.4544C165.832 29.9013 165.832 33.3081 165.832 36.6748C164.97 36.6748 164.088 36.6748 163.187 36.6748C162.305 36.6748 161.423 36.6748 160.541 36.6748C159.479 34.771 158.397 32.8472 157.295 30.9033C156.213 28.9594 155.14 27.0356 154.078 25.1318C154.078 27.0356 154.078 28.9594 154.078 30.9033C154.078 32.8472 154.078 34.771 154.078 36.6748C153.217 36.6748 152.355 36.6748 151.493 36.6748C150.631 36.6748 149.77 36.6748 148.908 36.6748ZM167.796 36.6748C168.839 33.3081 169.881 29.9013 170.923 26.4544C171.985 23.0075 173.037 19.6007 174.079 16.234C175.261 16.234 176.454 16.234 177.656 16.234C178.879 16.234 180.081 16.234 181.263 16.234C182.305 19.6007 183.348 23.0075 184.39 26.4544C185.452 29.9013 186.504 33.3081 187.546 36.6748C186.684 36.6748 185.802 36.6748 184.901 36.6748C184.019 36.6748 183.137 36.6748 182.255 36.6748C182.055 36.0335 181.865 35.3922 181.684 34.751C181.504 34.0896 181.313 33.4383 181.113 32.7971C179.971 32.7971 178.818 32.7971 177.656 32.7971C176.514 32.7971 175.372 32.7971 174.229 32.7971C174.029 33.4383 173.839 34.0896 173.658 34.751C173.478 35.3922 173.287 36.0335 173.087 36.6748C172.225 36.6748 171.344 36.6748 170.442 36.6748C169.56 36.6748 168.678 36.6748 167.796 36.6748ZM175.552 28.3181C176.253 28.3181 176.955 28.3181 177.656 28.3181C178.378 28.3181 179.089 28.3181 179.79 28.3181C179.45 27.1358 179.099 25.9434 178.738 24.741C178.378 23.5386 178.027 22.3462 177.686 21.1639C177.346 22.3462 176.985 23.5386 176.604 24.741C176.243 25.9434 175.893 27.1358 175.552 28.3181ZM189.507 36.6748C189.507 33.3081 189.507 29.9013 189.507 26.4544C189.507 23.0075 189.507 19.6007 189.507 16.234C190.709 16.234 191.911 16.234 193.114 16.234C194.336 16.234 195.549 16.234 196.751 16.234C198.274 16.234 199.607 16.5246 200.749 17.1058C201.891 17.6669 202.773 18.4685 203.394 19.5106C204.036 20.5326 204.356 21.735 204.356 23.1178C204.356 24.3001 204.116 25.3522 203.635 26.2741C203.154 27.1959 202.503 27.9474 201.681 28.5286C202.482 29.8712 203.284 31.2339 204.086 32.6167C204.907 33.9794 205.719 35.3321 206.521 36.6748C205.539 36.6748 204.557 36.6748 203.575 36.6748C202.593 36.6748 201.611 36.6748 200.629 36.6748C200.008 35.5526 199.376 34.4103 198.735 33.248C198.114 32.0856 197.483 30.9434 196.841 29.8211C196.501 29.8211 196.15 29.8211 195.789 29.8211C195.448 29.8211 195.108 29.8211 194.767 29.8211C194.767 30.9434 194.767 32.0856 194.767 33.248C194.767 34.4103 194.767 35.5526 194.767 36.6748C193.905 36.6748 193.034 36.6748 192.152 36.6748C191.27 36.6748 190.388 36.6748 189.507 36.6748ZM196.751 20.9835C196.43 20.9835 196.1 20.9835 195.759 20.9835C195.438 20.9835 195.108 20.9835 194.767 20.9835C194.767 21.725 194.767 22.4665 194.767 23.2079C194.767 23.9494 194.767 24.6909 194.767 25.4324C195.148 25.4324 195.529 25.4324 195.909 25.4324C196.29 25.4324 196.671 25.4324 197.052 25.4324C197.653 25.4324 198.144 25.222 198.525 24.8011C198.905 24.3602 199.096 23.8292 199.096 23.2079C199.096 22.5667 198.885 22.0356 198.464 21.6148C198.064 21.1939 197.493 20.9835 196.751 20.9835ZM211.832 36.6748C211.832 35.4524 211.832 34.2199 211.832 32.9774C211.832 31.7349 211.832 30.5025 211.832 29.2801C210.77 27.1358 209.688 24.9614 208.586 22.757C207.484 20.5526 206.401 18.3783 205.339 16.234C206.261 16.234 207.193 16.234 208.135 16.234C209.077 16.234 210.009 16.234 210.93 16.234C211.512 17.4565 212.103 18.6889 212.704 19.9314C213.325 21.1538 213.926 22.3763 214.508 23.5987C215.089 22.3763 215.68 21.1538 216.281 19.9314C216.882 18.6889 217.474 17.4565 218.055 16.234C218.977 16.234 219.898 16.234 220.82 16.234C221.742 16.234 222.664 16.234 223.586 16.234C222.524 18.3783 221.441 20.5526 220.339 22.757C219.237 24.9614 218.155 27.1358 217.093 29.2801C217.093 30.5025 217.093 31.7349 217.093 32.9774C217.093 34.2199 217.093 35.4524 217.093 36.6748C216.231 36.6748 215.359 36.6748 214.478 36.6748C213.596 36.6748 212.714 36.6748 211.832 36.6748Z" fill="#1E1E1E"/>
<path d="M161.282 8.25955L165.131 11.6559C166.414 9.08975 169.524 3.50472 171.698 1.69336" stroke="url(#paint2_linear_364_213)" stroke-width="3.38644" stroke-linecap="round"/>
<defs>
<linearGradient id="paint0_linear_364_213" x1="67.6775" y1="43.9988" x2="110.513" y2="-4.55488" gradientUnits="userSpaceOnUse">
<stop offset="0.18941" stop-color="#FA785B"/>
<stop offset="1" stop-color="#FF3761"/>
</linearGradient>
<linearGradient id="paint1_linear_364_213" x1="65.1492" y1="46.8831" x2="107.985" y2="-1.6706" gradientUnits="userSpaceOnUse">
<stop offset="0.18941" stop-color="#FA785B"/>
<stop offset="1" stop-color="#FF3761"/>
</linearGradient>
<linearGradient id="paint2_linear_364_213" x1="162.134" y1="17.5314" x2="171.487" y2="16.9464" gradientUnits="userSpaceOnUse">
<stop offset="0.18941" stop-color="#FA785B"/>
<stop offset="1" stop-color="#FF3761"/>
</linearGradient>
</defs>
</svg>
