<svg width="37" height="37" viewBox="0 0 37 37" fill="none" xmlns="http://www.w3.org/2000/svg">
<path d="M18.4997 16.9583C19.7193 16.9583 20.9116 16.5967 21.9257 15.9191C22.9398 15.2415 23.7302 14.2784 24.1969 13.1516C24.6637 12.0247 24.7858 10.7848 24.5478 9.58861C24.3099 8.3924 23.7226 7.2936 22.8602 6.43118C21.9977 5.56875 20.8989 4.98144 19.7027 4.74349C18.5065 4.50555 17.2666 4.62767 16.1398 5.09441C15.013 5.56115 14.0499 6.35155 13.3723 7.36565C12.6947 8.37976 12.333 9.57202 12.333 10.7917C12.333 12.4272 12.9827 13.9957 14.1392 15.1522C15.2957 16.3086 16.8642 16.9583 18.4997 16.9583ZM18.4997 7.70834C19.1095 7.70834 19.7056 7.88917 20.2127 8.22797C20.7197 8.56677 21.1149 9.04832 21.3483 9.61173C21.5817 10.1751 21.6427 10.7951 21.5238 11.3932C21.4048 11.9913 21.1111 12.5407 20.6799 12.9719C20.2487 13.4031 19.6993 13.6968 19.1012 13.8158C18.5031 13.9347 17.8831 13.8737 17.3197 13.6403C16.7563 13.4069 16.2748 13.0117 15.936 12.5047C15.5972 11.9976 15.4163 11.4015 15.4163 10.7917C15.4163 9.97392 15.7412 9.18966 16.3194 8.61142C16.8977 8.03319 17.6819 7.70834 18.4997 7.70834ZM18.4997 20.0417C15.6375 20.0417 12.8926 21.1786 10.8688 23.2025C8.84498 25.2263 7.70801 27.9712 7.70801 30.8333C7.70801 31.2422 7.87043 31.6343 8.15955 31.9235C8.44867 32.2126 8.8408 32.375 9.24967 32.375C9.65855 32.375 10.0507 32.2126 10.3398 31.9235C10.6289 31.6343 10.7913 31.2422 10.7913 30.8333C10.7913 28.789 11.6035 26.8283 13.0491 25.3827C14.4947 23.9371 16.4553 23.125 18.4997 23.125C20.5441 23.125 22.5047 23.9371 23.9503 25.3827C25.3959 26.8283 26.208 28.789 26.208 30.8333C26.208 31.2422 26.3704 31.6343 26.6595 31.9235C26.9487 32.2126 27.3408 32.375 27.7497 32.375C28.1586 32.375 28.5507 32.2126 28.8398 31.9235C29.1289 31.6343 29.2913 31.2422 29.2913 30.8333C29.2913 27.9712 28.1544 25.2263 26.1305 23.2025C24.1067 21.1786 21.3618 20.0417 18.4997 20.0417Z" fill="white"/>
</svg>
