<svg width="24" height="24" viewBox="0 0 24 24" fill="none" xmlns="http://www.w3.org/2000/svg">
<path d="M23.2632 21.406L18.0689 16.2096C19.6263 14.1801 20.3534 11.6342 20.1028 9.08832C19.8521 6.54245 18.6424 4.18725 16.7191 2.50049C14.7958 0.813733 12.3029 -0.0782817 9.74605 0.00539675C7.18924 0.0890752 4.75999 1.14218 2.95109 2.95109C1.14218 4.75999 0.0890752 7.18924 0.00539675 9.74605C-0.0782817 12.3029 0.813733 14.7958 2.50049 16.7191C4.18725 18.6424 6.54245 19.8521 9.08832 20.1028C11.6342 20.3534 14.1801 19.6263 16.2096 18.0689L21.4082 23.2686C21.5302 23.3907 21.6752 23.4876 21.8347 23.5536C21.9942 23.6197 22.1652 23.6537 22.3378 23.6537C22.5105 23.6537 22.6815 23.6197 22.841 23.5536C23.0005 23.4876 23.1454 23.3907 23.2675 23.2686C23.3896 23.1465 23.4865 23.0016 23.5525 22.8421C23.6186 22.6826 23.6526 22.5116 23.6526 22.3389C23.6526 22.1663 23.6186 21.9953 23.5525 21.8358C23.4865 21.6763 23.3896 21.5313 23.2675 21.4093L23.2632 21.406ZM2.64707 10.0846C2.64707 8.61357 3.08327 7.1756 3.90051 5.95251C4.71775 4.72942 5.87933 3.77614 7.23836 3.21321C8.59738 2.65029 10.0928 2.503 11.5356 2.78998C12.9783 3.07695 14.3035 3.78531 15.3437 4.82546C16.3838 5.86561 17.0922 7.19085 17.3792 8.63358C17.6661 10.0763 17.5188 11.5718 16.9559 12.9308C16.393 14.2898 15.4397 15.4514 14.2166 16.2686C12.9935 17.0859 11.5556 17.5221 10.0846 17.5221C8.11264 17.52 6.22206 16.7358 4.8277 15.3414C3.43334 13.9471 2.64909 12.0565 2.64707 10.0846Z" fill="#262627"/>
</svg>
