<svg width="30" height="30" viewBox="0 0 30 30" fill="none" xmlns="http://www.w3.org/2000/svg">
<circle cx="15" cy="15" r="14" stroke="black" stroke-width="2"/>
<path d="M14.966 9.53076C15.1767 9.53076 15.3787 9.61445 15.5277 9.76342C15.6766 9.91239 15.7603 10.1144 15.7603 10.3251V14.8264H20.2616C20.4723 14.8264 20.6744 14.9101 20.8233 15.0591C20.9723 15.2081 21.056 15.4101 21.056 15.6208C21.056 15.8314 20.9723 16.0335 20.8233 16.1825C20.6744 16.3314 20.4723 16.4151 20.2616 16.4151H15.7603V20.9164C15.7603 21.1271 15.6766 21.3292 15.5277 21.4781C15.3787 21.6271 15.1767 21.7108 14.966 21.7108C14.7553 21.7108 14.5533 21.6271 14.4043 21.4781C14.2553 21.3292 14.1716 21.1271 14.1716 20.9164V16.4151H9.67033C9.45965 16.4151 9.25761 16.3314 9.10864 16.1825C8.95967 16.0335 8.87598 15.8314 8.87598 15.6208C8.87598 15.4101 8.95967 15.2081 9.10864 15.0591C9.25761 14.9101 9.45965 14.8264 9.67033 14.8264H14.1716V10.3251C14.1716 10.1144 14.2553 9.91239 14.4043 9.76342C14.5533 9.61445 14.7553 9.53076 14.966 9.53076Z" fill="#1A1A1A"/>
</svg>
