<svg width="20" height="20" viewBox="0 0 20 20" fill="none" xmlns="http://www.w3.org/2000/svg">
<path d="M-4.37118e-07 10C-6.73144e-07 4.60035 4.27949 0.202516 9.63184 0.00878864L9.63184 0.00390583L9.84082 0.00390582C9.89378 0.00307994 9.94684 -4.3479e-07 10 -4.37114e-07C10.0528 -4.39424e-07 10.1056 0.00308946 10.1582 0.00390581L16.0225 0.00390555C18.2171 0.00394169 19.9961 1.78389 19.9961 3.97851L19.9961 9.8418C19.9969 9.89442 20 9.94718 20 10C20 10.0528 19.9969 10.1056 19.9961 10.1582L19.9961 10.6514L19.9766 10.6514C19.6409 15.8706 15.304 20 10 20C4.4771 20 4.2019e-05 15.5229 -4.37118e-07 10Z" fill="url(#paint0_linear_346_316)"/>
<defs>
<linearGradient id="paint0_linear_346_316" x1="31.7953" y1="18.3649" x2="30.7204" y2="0.398552" gradientUnits="userSpaceOnUse">
<stop offset="0.18941" stop-color="#FA785B"/>
<stop offset="1" stop-color="#FF3761"/>
</linearGradient>
</defs>
</svg>
