<svg width="24" height="27" viewBox="0 0 24 27" fill="none" xmlns="http://www.w3.org/2000/svg">
<path d="M1 6.55556H22.6667M9.125 12.1111V20.4444M14.5417 12.1111V20.4444M2.35417 6.55556L3.70833 23.2222C3.70833 23.9589 3.99367 24.6655 4.50159 25.1864C5.0095 25.7073 5.69837 26 6.41667 26H17.25C17.9683 26 18.6572 25.7073 19.1651 25.1864C19.673 24.6655 19.9583 23.9589 19.9583 23.2222L21.3125 6.55556M7.77083 6.55556V2.38889C7.77083 2.02053 7.9135 1.66726 8.16746 1.4068C8.42142 1.14633 8.76585 1 9.125 1H14.5417C14.9008 1 15.2453 1.14633 15.4992 1.4068C15.7532 1.66726 15.8958 2.02053 15.8958 2.38889V6.55556" stroke="#262627" stroke-width="2" stroke-linecap="round" stroke-linejoin="round"/>
</svg>
