<svg width="27" height="27" viewBox="0 0 27 27" fill="none" xmlns="http://www.w3.org/2000/svg">
<path d="M7.80675 10.3932H18.6986M7.80675 16.1068H15.5743M13.2527 25.75C15.9681 25.7494 18.6094 24.8646 20.7773 23.2295C22.9451 21.5943 24.5216 19.2977 25.2682 16.687C26.0148 14.0763 25.891 11.2934 24.9155 8.75933C23.94 6.22522 22.1658 4.07769 19.8613 2.6415C17.5568 1.20532 14.8473 0.558605 12.1426 0.799161C9.43793 1.03972 6.8851 2.15446 4.87024 3.9748C2.85538 5.79515 1.48807 8.22208 0.975094 10.8886C0.462118 13.5551 0.831377 16.3161 2.02703 18.7541C2.17297 19.0514 2.22162 19.3865 2.1473 19.7081L1.0446 24.4865C1.01351 24.6206 1.01707 24.7604 1.05496 24.8927C1.09284 25.0251 1.16379 25.1456 1.26113 25.2429C1.35847 25.3403 1.47898 25.4112 1.61132 25.4491C1.74366 25.487 1.88347 25.4905 2.01757 25.4595L6.79459 24.3554C7.11712 24.2848 7.45415 24.3277 7.74865 24.477C9.46134 25.3181 11.3446 25.7537 13.2527 25.75Z" stroke="url(#paint0_linear_215_4702)" stroke-width="1.5" stroke-linecap="round" stroke-linejoin="round"/>
<defs>
<linearGradient id="paint0_linear_215_4702" x1="2.79384" y1="40.4942" x2="25.2518" y2="39.1505" gradientUnits="userSpaceOnUse">
<stop offset="0.18941" stop-color="#FA785B"/>
<stop offset="1" stop-color="#FF3761"/>
</linearGradient>
</defs>
</svg>
