<svg width="45" height="45" viewBox="0 0 45 45" fill="none" xmlns="http://www.w3.org/2000/svg">
<path d="M22.1699 0C22.9368 0 23.6723 0.304662 24.2146 0.846965C24.7569 1.38927 25.0616 2.12479 25.0616 2.89172V19.2781H41.448C42.2149 19.2781 42.9504 19.5828 43.4927 20.1251C44.035 20.6674 44.3397 21.4029 44.3397 22.1699C44.3397 22.9368 44.035 23.6723 43.4927 24.2146C42.9504 24.7569 42.2149 25.0616 41.448 25.0616H25.0616V41.448C25.0616 42.2149 24.7569 42.9504 24.2146 43.4927C23.6723 44.035 22.9368 44.3397 22.1699 44.3397C21.4029 44.3397 20.6674 44.035 20.1251 43.4927C19.5828 42.9504 19.2781 42.2149 19.2781 41.448V25.0616H2.89172C2.12479 25.0616 1.38927 24.7569 0.846965 24.2146C0.304662 23.6723 0 22.9368 0 22.1699C0 21.4029 0.304662 20.6674 0.846965 20.1251C1.38927 19.5828 2.12479 19.2781 2.89172 19.2781H19.2781V2.89172C19.2781 2.12479 19.5828 1.38927 20.1251 0.846965C20.6674 0.304662 21.4029 0 22.1699 0Z" fill="url(#paint0_linear_589_165)"/>
<defs>
<linearGradient id="paint0_linear_589_165" x1="3.62493" y1="70.4897" x2="43.4561" y2="68.1067" gradientUnits="userSpaceOnUse">
<stop offset="0.18941" stop-color="#FA785B"/>
<stop offset="1" stop-color="#FF3761"/>
</linearGradient>
</defs>
</svg>
