<svg width="24" height="23" viewBox="0 0 24 23" fill="none" xmlns="http://www.w3.org/2000/svg">
<path d="M22.9266 20.8179L17.8076 15.7642C19.3424 13.7905 20.059 11.3145 19.812 8.83862C19.5649 6.3627 18.3727 4.07221 16.4772 2.43179C14.5817 0.791377 12.1249 -0.076131 9.60507 0.00524848C7.08525 0.086628 4.69114 1.1108 2.9084 2.87001C1.12566 4.62922 0.0877867 6.99173 0.00531868 9.47829C-0.0771493 11.9649 0.801962 14.3893 2.46432 16.2597C4.12668 18.1302 6.4478 19.3067 8.95684 19.5505C11.4659 19.7942 13.975 19.0871 15.9751 17.5725L21.0985 22.6293C21.2188 22.7481 21.3616 22.8423 21.5188 22.9065C21.6761 22.9708 21.8446 23.0039 22.0147 23.0039C22.1849 23.0039 22.3534 22.9708 22.5106 22.9065C22.6678 22.8423 22.8106 22.7481 22.931 22.6293C23.0513 22.5106 23.1467 22.3697 23.2118 22.2145C23.277 22.0594 23.3105 21.8931 23.3105 21.7252C23.3105 21.5573 23.277 21.391 23.2118 21.2359C23.1467 21.0807 23.0513 20.9398 22.931 20.8211L22.9266 20.8179ZM2.60877 9.8075C2.60877 8.37692 3.03867 6.97846 3.84409 5.78897C4.64951 4.59949 5.79428 3.67239 7.13365 3.12493C8.47302 2.57747 9.94682 2.43423 11.3687 2.71332C12.7905 2.99242 14.0966 3.68131 15.1217 4.69288C16.1468 5.70446 16.8449 6.99329 17.1278 8.39638C17.4106 9.79948 17.2654 11.2538 16.7106 12.5755C16.1559 13.8972 15.2164 15.0269 14.011 15.8217C12.8056 16.6164 11.3884 17.0407 9.93869 17.0407C7.99529 17.0387 6.13205 16.276 4.75786 14.9199C3.38367 13.5639 2.61077 11.7253 2.60877 9.8075Z" fill="#262627"/>
</svg>
