<svg width="409" height="474" viewBox="0 0 409 474" fill="none" xmlns="http://www.w3.org/2000/svg">
<rect width="408" height="473.259" fill="#B3B3B3"/>
<ellipse cx="205.604" cy="193.98" rx="9.02745" ry="23.4605" transform="rotate(60.2352 205.604 193.98)" fill="#F8F8F6"/>
<ellipse cx="229.97" cy="220.928" rx="9.18566" ry="22.8946" transform="rotate(140.299 229.97 220.928)" fill="#F8F8F6"/>
<ellipse cx="192.352" cy="224.555" rx="8.64183" ry="22.4874" transform="rotate(-126.793 192.352 224.555)" fill="#F8F8F6"/>
<line x1="161.972" y1="229.038" x2="170.195" y2="229.038" stroke="white" stroke-width="1.52653" stroke-linecap="round"/>
<line x1="157.101" y1="235.102" x2="165.324" y2="235.102" stroke="white" stroke-width="1.52653" stroke-linecap="round"/>
<path d="M215.533 164.776C215.533 159.528 219.694 155.254 224.898 155.064V155.062L225.011 155.062C225.093 155.059 225.176 155.056 225.259 155.056C225.336 155.056 225.413 155.06 225.489 155.062L232.453 155.062C233.847 155.062 234.977 156.192 234.978 157.586V164.507C234.98 164.596 234.984 164.686 234.984 164.776C234.984 164.866 234.98 164.956 234.978 165.046V165.41L234.961 165.41C234.634 170.483 230.417 174.497 225.259 174.497C219.888 174.497 215.533 170.145 215.533 164.776Z" fill="#F8F8F6"/>
</svg>
