<svg width="40" height="40" viewBox="0 0 40 40" fill="none" xmlns="http://www.w3.org/2000/svg">
<path d="M20.0007 5.41699C18.5641 5.41699 17.1863 5.98767 16.1705 7.0035C15.1547 8.01932 14.584 9.39707 14.584 10.8337V20.8337C14.584 22.2702 15.1547 23.648 16.1705 24.6638C17.1863 25.6796 18.5641 26.2503 20.0007 26.2503C21.4372 26.2503 22.815 25.6796 23.8308 24.6638C24.8466 23.648 25.4173 22.2702 25.4173 20.8337V10.8337C25.4173 9.39707 24.8466 8.01932 23.8308 7.0035C22.815 5.98767 21.4372 5.41699 20.0007 5.41699Z" fill="#F8F8F6"/>
<path d="M12.916 20.833C12.916 20.5015 12.7843 20.1835 12.5499 19.9491C12.3155 19.7147 11.9975 19.583 11.666 19.583C11.3345 19.583 11.0166 19.7147 10.7821 19.9491C10.5477 20.1835 10.416 20.5015 10.416 20.833C10.416 23.1582 11.2613 25.4041 12.7944 27.1522C14.3276 28.9003 16.444 30.0314 18.7493 30.3347V32.083H14.9993C14.6678 32.083 14.3499 32.2147 14.1155 32.4491C13.881 32.6835 13.7493 33.0015 13.7493 33.333C13.7493 33.6645 13.881 33.9825 14.1155 34.2169C14.3499 34.4513 14.6678 34.583 14.9993 34.583H24.9993C25.3309 34.583 25.6488 34.4513 25.8832 34.2169C26.1177 33.9825 26.2493 33.6645 26.2493 33.333C26.2493 33.0015 26.1177 32.6835 25.8832 32.4491C25.6488 32.2147 25.3309 32.083 24.9993 32.083H21.2493V30.3347C23.5547 30.0314 25.6711 28.9003 27.2043 27.1522C28.7374 25.4041 29.5827 23.1582 29.5827 20.833C29.5827 20.5015 29.451 20.1835 29.2166 19.9491C28.9821 19.7147 28.6642 19.583 28.3327 19.583C28.0012 19.583 27.6832 19.7147 27.4488 19.9491C27.2144 20.1835 27.0827 20.5015 27.0827 20.833C27.0827 22.7116 26.3364 24.5133 25.008 25.8417C23.6796 27.1701 21.878 27.9163 19.9993 27.9163C18.1207 27.9163 16.3191 27.1701 14.9907 25.8417C13.6623 24.5133 12.916 22.7116 12.916 20.833Z" fill="#F8F8F6"/>
<g filter="url(#filter0_d_1777_326)">
<path d="M6.9043 33.2969L33.0974 7.10449" stroke="#F8F8F6" stroke-width="3" stroke-linecap="round"/>
</g>
<defs>
<filter id="filter0_d_1777_326" x="5.4043" y="5.60449" width="29.1934" height="31.1924" filterUnits="userSpaceOnUse" color-interpolation-filters="sRGB">
<feFlood flood-opacity="0" result="BackgroundImageFix"/>
<feColorMatrix in="SourceAlpha" type="matrix" values="0 0 0 0 0 0 0 0 0 0 0 0 0 0 0 0 0 0 127 0" result="hardAlpha"/>
<feOffset dy="2"/>
<feComposite in2="hardAlpha" operator="out"/>
<feColorMatrix type="matrix" values="0 0 0 0 0.0627451 0 0 0 0 0.0627451 0 0 0 0 0.0627451 0 0 0 1 0"/>
<feBlend mode="normal" in2="BackgroundImageFix" result="effect1_dropShadow_1777_326"/>
<feBlend mode="normal" in="SourceGraphic" in2="effect1_dropShadow_1777_326" result="shape"/>
</filter>
</defs>
</svg>
