<svg width="25" height="25" viewBox="0 0 25 25" fill="none" xmlns="http://www.w3.org/2000/svg">
<path d="M18.2938 9.60624L17.7458 10.5729C17.2302 11.4823 16.9719 11.9364 16.4104 11.976C15.8479 12.0156 15.6104 11.6906 15.1344 11.0406C14.6052 10.3125 14.2658 9.46405 14.1469 8.57186C14.0354 7.73957 13.9802 7.32395 13.8448 7.11874C13.6302 6.7927 13.1969 6.61353 12.874 6.42395C12.0229 5.92395 11.5969 5.67395 11.4854 5.24791C11.3729 4.82395 11.6188 4.39061 12.1104 3.52395C12.6021 2.65728 12.8479 2.22395 13.2656 2.11041C13.6823 1.99582 14.1094 2.24686 14.9604 2.74686C15.2833 2.93749 15.6521 3.22811 16.0375 3.2552C16.2792 3.27186 16.6615 3.11249 17.425 2.79478C18.2441 2.45185 19.1379 2.32626 20.0198 2.4302C20.8115 2.52499 21.2073 2.57291 21.4531 3.08645C21.701 3.60207 21.4427 4.05624 20.9271 4.96561L20.3792 5.9302M18.2938 9.60624L18.7458 9.87186C18.9831 10.0108 19.2458 10.101 19.5184 10.1372C19.791 10.1734 20.0681 10.1548 20.3334 10.0825C20.5987 10.0103 20.847 9.88575 21.0636 9.71632C21.2802 9.54689 21.4608 9.33594 21.5948 9.09582C21.8722 8.60864 21.9476 8.03214 21.8049 7.48999C21.6621 6.94784 21.3126 6.48323 20.8313 6.19582L20.3792 5.9302M18.2938 9.60624L20.3792 5.9302M7.29167 13.5417C7.29167 14.0942 7.07217 14.6241 6.68147 15.0148C6.29077 15.4055 5.76087 15.625 5.20833 15.625C4.6558 15.625 4.12589 15.4055 3.73519 15.0148C3.34449 14.6241 3.125 14.0942 3.125 13.5417C3.125 12.9891 3.34449 12.4592 3.73519 12.0685C4.12589 11.6778 4.6558 11.4583 5.20833 11.4583C5.76087 11.4583 6.29077 11.6778 6.68147 12.0685C7.07217 12.4592 7.29167 12.9891 7.29167 13.5417Z" stroke="#262627" stroke-width="1.5"/>
<path d="M6.25 12.5003L13.5417 7.29199" stroke="#262627" stroke-width="1.5" stroke-linejoin="round"/>
<path d="M7.29167 22.9167H14.5833M6.25 15.625L11.4583 22.9167" stroke="#262627" stroke-width="1.5" stroke-linecap="round" stroke-linejoin="round"/>
</svg>
