<svg width="40" height="40" viewBox="0 0 40 40" fill="none" xmlns="http://www.w3.org/2000/svg">
<path d="M5 30.0003V15.0003C5 14.1163 5.35119 13.2684 5.97631 12.6433C6.60143 12.0182 7.44928 11.667 8.33333 11.667H9.88333C10.432 11.6671 10.9722 11.5317 11.4559 11.273C11.9397 11.0142 12.3522 10.64 12.6567 10.1837L14.01 8.15033C14.3145 7.69394 14.7269 7.31977 15.2107 7.06101C15.6945 6.80225 16.2347 6.66691 16.7833 6.66699H23.2167C23.7653 6.66691 24.3055 6.80225 24.7893 7.06101C25.2731 7.31977 25.6855 7.69394 25.99 8.15033L27.3433 10.1837C27.6478 10.64 28.0603 11.0142 28.5441 11.273C29.0278 11.5317 29.568 11.6671 30.1167 11.667H31.6667C32.5507 11.667 33.3986 12.0182 34.0237 12.6433C34.6488 13.2684 35 14.1163 35 15.0003V30.0003C35 30.8844 34.6488 31.7322 34.0237 32.3573C33.3986 32.9825 32.5507 33.3337 31.6667 33.3337H8.33333C7.44928 33.3337 6.60143 32.9825 5.97631 32.3573C5.35119 31.7322 5 30.8844 5 30.0003Z" stroke="#262627" stroke-width="3" stroke-linecap="round" stroke-linejoin="round"/>
<path d="M20 26.667C22.7614 26.667 25 24.4284 25 21.667C25 18.9056 22.7614 16.667 20 16.667C17.2386 16.667 15 18.9056 15 21.667C15 24.4284 17.2386 26.667 20 26.667Z" stroke="#262627" stroke-width="3" stroke-linecap="round" stroke-linejoin="round"/>
</svg>
