<svg width="25" height="25" viewBox="0 0 25 25" fill="none" xmlns="http://www.w3.org/2000/svg">
<path d="M14.0625 8.33301H17.1875L14.0625 11.458H17.1875M18.75 2.08301H22.9167L18.75 6.24967H22.9167" fill="#262627"/>
<path d="M14.0625 8.33301H17.1875L14.0625 11.458H17.1875M18.75 2.08301H22.9167L18.75 6.24967H22.9167" stroke="#262627" stroke-width="1.5" stroke-linecap="round" stroke-linejoin="round"/>
<path d="M2.37793 13C2.50169 15.5058 3.55159 17.8835 5.33398 19.666C7.11664 21.4487 9.49481 22.4994 12.001 22.623V23.1846C6.49059 22.9312 2.06915 18.5103 1.81543 13H2.37793ZM23.1855 13C22.9318 18.5101 18.5111 22.9309 13.001 23.1846V22.623C15.5069 22.4993 17.8845 21.4485 19.667 19.666C21.2766 18.0564 22.2863 15.9612 22.5586 13.7246C22.7309 13.4979 22.893 13.2626 23.041 13.0176L23.0518 13H23.1855ZM21.6299 12.7432C21.6247 12.9384 21.6142 13.1327 21.5967 13.3262C21.0458 13.9973 20.3764 14.5654 19.6152 14.9951C18.7025 15.5103 17.6879 15.813 16.6465 15.8867V15.3213C17.5906 15.2484 18.5098 14.9724 19.3379 14.5049C20.166 14.0373 20.8777 13.3929 21.4277 12.6221L21.6299 12.7432ZM9.67773 9.35352C9.79649 10.8917 10.459 12.3437 11.5576 13.4424C12.6562 14.541 14.1083 15.2034 15.6465 15.3223V15.8857C13.9591 15.7658 12.3642 15.0448 11.1602 13.8408C9.95594 12.6366 9.23411 11.0412 9.11426 9.35352H9.67773ZM22.5625 11.8096V11.8105C22.7136 11.8312 22.8628 11.8957 22.9795 12H22.332L22.1113 11.8662C22.2585 11.8086 22.4172 11.7901 22.5625 11.8096ZM12.001 1.94922L11.9873 1.95801C11.7406 2.10681 11.5025 2.26807 11.2744 2.44141C9.03833 2.71396 6.94333 3.72366 5.33398 5.33301C3.55134 7.11566 2.50154 9.49384 2.37793 12H1.81543C2.06883 6.48937 6.49034 2.06686 12.001 1.81348V1.94922ZM12.3779 3.57227C11.6072 4.12232 10.9627 4.83404 10.4951 5.66211C10.0276 6.4902 9.75063 7.4094 9.67773 8.35352H9.11328C9.18716 7.31246 9.48979 6.29823 10.0049 5.38574C10.4346 4.62443 11.0026 3.95427 11.6738 3.40332C11.8669 3.38577 12.061 3.37436 12.2559 3.36914L12.3779 3.57227ZM13.001 2.02148C13.0775 2.10729 13.1326 2.21023 13.1641 2.31934L13.1895 2.43848C13.2088 2.5837 13.1904 2.74165 13.1328 2.88867L13.001 2.66895V2.02148Z" fill="#262627" stroke="#262627"/>
</svg>
