<svg width="35" height="45" viewBox="0 0 35 45" fill="none" xmlns="http://www.w3.org/2000/svg">
<path d="M17.5 20C19.4778 20 21.4112 19.4135 23.0557 18.3147C24.7002 17.2159 25.9819 15.6541 26.7388 13.8268C27.4957 11.9996 27.6937 9.98891 27.3079 8.0491C26.922 6.10929 25.9696 4.32746 24.5711 2.92894C23.1725 1.53041 21.3907 0.578004 19.4509 0.192152C17.5111 -0.193701 15.5004 0.00433281 13.6732 0.761209C11.8459 1.51809 10.2841 2.79981 9.1853 4.4443C8.08649 6.08879 7.5 8.02219 7.5 10C7.5 12.6522 8.55357 15.1957 10.4289 17.0711C12.3043 18.9464 14.8478 20 17.5 20ZM17.5 5C18.4889 5 19.4556 5.29325 20.2779 5.84266C21.1001 6.39206 21.741 7.17296 22.1194 8.08659C22.4978 9.00022 22.5969 10.0056 22.4039 10.9755C22.211 11.9454 21.7348 12.8363 21.0355 13.5355C20.3363 14.2348 19.4454 14.711 18.4755 14.9039C17.5055 15.0969 16.5002 14.9978 15.5866 14.6194C14.673 14.241 13.8921 13.6001 13.3427 12.7779C12.7932 11.9556 12.5 10.9889 12.5 10C12.5 8.67392 13.0268 7.40215 13.9645 6.46447C14.9021 5.52679 16.1739 5 17.5 5ZM17.5 25C12.8587 25 8.40752 26.8438 5.12563 30.1256C1.84374 33.4075 0 37.8587 0 42.5C0 43.1631 0.263393 43.7989 0.732234 44.2678C1.20107 44.7366 1.83696 45 2.5 45C3.16304 45 3.79893 44.7366 4.26777 44.2678C4.73661 43.7989 5 43.1631 5 42.5C5 39.1848 6.31696 36.0054 8.66117 33.6612C11.0054 31.317 14.1848 30 17.5 30C20.8152 30 23.9946 31.317 26.3388 33.6612C28.683 36.0054 30 39.1848 30 42.5C30 43.1631 30.2634 43.7989 30.7322 44.2678C31.2011 44.7366 31.837 45 32.5 45C33.163 45 33.7989 44.7366 34.2678 44.2678C34.7366 43.7989 35 43.1631 35 42.5C35 37.8587 33.1563 33.4075 29.8744 30.1256C26.5925 26.8438 22.1413 25 17.5 25Z" fill="white"/>
</svg>
