<svg width="11" height="24" viewBox="0 0 11 24" fill="none" xmlns="http://www.w3.org/2000/svg">
<path d="M5.49972 7.5C6.80154 7.5 7.85686 6.49264 7.85686 5.25C7.85686 4.00736 6.80154 3 5.49972 3C4.19791 3 3.14258 4.00736 3.14258 5.25C3.14258 6.49264 4.19791 7.5 5.49972 7.5Z" fill="black"/>
<path d="M5.49972 15C6.80154 15 7.85686 13.9926 7.85686 12.75C7.85686 11.5074 6.80154 10.5 5.49972 10.5C4.19791 10.5 3.14258 11.5074 3.14258 12.75C3.14258 13.9926 4.19791 15 5.49972 15Z" fill="black"/>
<path d="M5.49972 22.5C6.80154 22.5 7.85686 21.4926 7.85686 20.25C7.85686 19.0074 6.80154 18 5.49972 18C4.19791 18 3.14258 19.0074 3.14258 20.25C3.14258 21.4926 4.19791 22.5 5.49972 22.5Z" fill="black"/>
</svg>
