<svg width="24" height="24" viewBox="0 0 24 24" fill="none" xmlns="http://www.w3.org/2000/svg">
<path d="M2.77621 19.7835L3.38321 15.6215C3.42021 15.3495 3.54421 15.0965 3.73821 14.9015L15.4992 3.12449C15.6515 2.97004 15.841 2.85751 16.0494 2.79777C16.2579 2.73803 16.4783 2.73311 16.6892 2.78349C17.7689 3.08195 18.7476 3.66735 19.5212 4.47749C20.3291 5.25644 20.9105 6.24007 21.2032 7.32349C21.2536 7.53442 21.2487 7.75478 21.1889 7.96325C21.1292 8.17172 21.0167 8.36125 20.8622 8.51349L9.08821 20.2755C8.89293 20.469 8.63973 20.5933 8.36721 20.6295L4.20621 21.2365C4.00965 21.2652 3.80911 21.2471 3.62083 21.1838C3.43256 21.1205 3.26186 21.0137 3.12258 20.872C2.98329 20.7304 2.87935 20.558 2.81917 20.3687C2.75899 20.1794 2.74427 19.9785 2.77621 19.7825M13.2742 5.36449L18.6372 10.7275" stroke="white" stroke-width="1.5" stroke-linecap="round" stroke-linejoin="round"/>
</svg>
