<svg width="32" height="36" viewBox="0 0 32 36" fill="none" xmlns="http://www.w3.org/2000/svg">
<path d="M21.6242 27.249V29.124C21.6242 30.6158 21.0316 32.0465 19.9768 33.1013C18.9219 34.1562 17.4912 34.7488 15.9995 34.7488C14.5077 34.7488 13.077 34.1562 12.0221 33.1013C10.9673 32.0465 10.3747 30.6158 10.3747 29.124V27.249M21.6242 27.249H10.3747M21.6242 27.249H28.3553C29.0734 27.249 29.4333 27.249 29.724 27.1515C29.9973 27.059 30.2456 26.9046 30.4495 26.7004C30.6534 26.4961 30.8074 26.2476 30.8995 25.9741C30.9989 25.6816 30.9989 25.3216 30.9989 24.5979C30.9989 24.281 30.9989 24.1235 30.9727 23.9717C30.9264 23.6878 30.8154 23.4183 30.6483 23.1842C30.5583 23.0586 30.4458 22.9461 30.2227 22.723L29.4915 21.9917C29.3748 21.875 29.2824 21.7364 29.2193 21.5839C29.1563 21.4314 29.1239 21.268 29.124 21.103V14.1245C29.124 12.401 28.7845 10.6943 28.1249 9.10199C27.4654 7.50965 26.4986 6.06281 25.2799 4.84408C24.0612 3.62536 22.6143 2.65861 21.022 1.99904C19.4297 1.33948 17.723 1 15.9995 1C14.2759 1 12.5693 1.33948 10.9769 1.99904C9.38458 2.65861 7.93774 3.62536 6.71902 4.84408C5.50029 6.06281 4.53355 7.50965 3.87398 9.10199C3.21441 10.6943 2.87493 12.401 2.87493 14.1245V21.103C2.87505 21.268 2.84265 21.4314 2.7796 21.5839C2.71655 21.7364 2.62407 21.875 2.50744 21.9917L1.77622 22.723C1.55123 22.948 1.44061 23.0586 1.35249 23.1823C1.1838 23.4167 1.07151 23.6868 1.02437 23.9717C1 24.1217 1 24.281 1 24.5979C1 25.3216 1 25.6816 1.0975 25.9741C1.18999 26.248 1.34457 26.4968 1.54915 26.7011C1.75374 26.9053 2.00278 27.0595 2.27683 27.1515C2.56744 27.249 2.92555 27.249 3.64365 27.249H10.3747" stroke="#F8F8F6" stroke-width="2" stroke-linecap="round" stroke-linejoin="round"/>
</svg>
