<svg width="50" height="50" viewBox="0 0 50 50" fill="none" xmlns="http://www.w3.org/2000/svg">
<path d="M25.0003 4.16675C36.5066 4.16675 45.8337 13.4938 45.8337 25.0001C45.8337 36.5063 36.5066 45.8334 25.0003 45.8334C13.4941 45.8334 4.16699 36.5063 4.16699 25.0001C4.16699 13.4938 13.4941 4.16675 25.0003 4.16675ZM25.0003 8.33341C20.58 8.33341 16.3408 10.0894 13.2152 13.215C10.0896 16.3406 8.33366 20.5798 8.33366 25.0001C8.33366 29.4204 10.0896 33.6596 13.2152 36.7852C16.3408 39.9108 20.58 41.6667 25.0003 41.6667C29.4206 41.6667 33.6598 39.9108 36.7854 36.7852C39.911 33.6596 41.667 29.4204 41.667 25.0001C41.667 20.5798 39.911 16.3406 36.7854 13.215C33.6598 10.0894 29.4206 8.33341 25.0003 8.33341ZM25.0003 12.5001C25.5106 12.5001 26.0031 12.6875 26.3844 13.0266C26.7658 13.3657 27.0094 13.8329 27.0691 14.3397L27.0837 14.5834V24.1376L32.7232 29.7772C33.0969 30.1521 33.3138 30.6552 33.33 31.1842C33.3461 31.7133 33.1603 32.2286 32.8102 32.6257C32.4602 33.0227 31.9721 33.2715 31.4452 33.3217C30.9182 33.3719 30.392 33.2197 29.9732 32.8959L29.7774 32.723L23.5274 26.473C23.2036 26.1489 22.9957 25.7272 22.9357 25.273L22.917 25.0001V14.5834C22.917 14.0309 23.1365 13.501 23.5272 13.1103C23.9179 12.7196 24.4478 12.5001 25.0003 12.5001Z" fill="url(#paint0_linear_473_1451)"/>
<defs>
<linearGradient id="paint0_linear_473_1451" x1="7.5734" y1="70.4069" x2="45.0033" y2="68.1676" gradientUnits="userSpaceOnUse">
<stop offset="0.18941" stop-color="#FA785B"/>
<stop offset="1" stop-color="#FF3761"/>
</linearGradient>
</defs>
</svg>
