<svg width="1920" height="1024" viewBox="0 0 1920 1024" fill="none" xmlns="http://www.w3.org/2000/svg">
<g filter="url(#filter0_f_215_4691)">
<path d="M1986.18 42.6854C1760.77 -19.8743 1443.99 217.44 1443.99 452.167C1443.99 722.135 1797.57 531.294 1600.74 342.987C1510.95 257.08 1287.38 199.629 1111.33 424.363C935.273 649.097 655.024 662.513 644.245 504.864C633.466 347.215 870.6 333.798 859.821 541.76C849.043 749.723 886.966 879.149 759.219 1014.71C664.792 1114.91 411.995 1181.14 353.217 830.225C299.167 507.546 -109.245 607.583 -287.694 720.509" stroke="url(#paint0_linear_215_4691)" stroke-opacity="0.2" stroke-width="60"/>
</g>
<defs>
<filter id="filter0_f_215_4691" x="-306.237" y="0" width="2302.94" height="1127.17" filterUnits="userSpaceOnUse" color-interpolation-filters="sRGB">
<feFlood flood-opacity="0" result="BackgroundImageFix"/>
<feBlend mode="normal" in="SourceGraphic" in2="BackgroundImageFix" result="shape"/>
<feGaussianBlur stdDeviation="1.25" result="effect1_foregroundBlur_215_4691"/>
</filter>
<linearGradient id="paint0_linear_215_4691" x1="1804.8" y1="-605.339" x2="-165.737" y2="-363.75" gradientUnits="userSpaceOnUse">
<stop offset="0.0432692" stop-color="#FA785B" stop-opacity="0.2"/>
<stop offset="0.256419" stop-color="#FA785B" stop-opacity="0.5"/>
<stop offset="0.365518" stop-color="#FC635D"/>
<stop offset="0.634615" stop-color="#FD505F"/>
<stop offset="0.8125" stop-color="#FF3761" stop-opacity="0.5"/>
<stop offset="0.971154" stop-color="#FF3761" stop-opacity="0.2"/>
</linearGradient>
</defs>
</svg>
