<svg width="240" height="50" viewBox="0 0 240 50" fill="none" xmlns="http://www.w3.org/2000/svg">
<rect width="49.4942" height="49.4942" rx="17.4672" fill="#1E1E1E"/>
<ellipse cx="25.2759" cy="22.3584" rx="3.29296" ry="8.55774" transform="rotate(60.2352 25.2759 22.3584)" fill="#F8F8F6"/>
<ellipse cx="34.1638" cy="32.1885" rx="3.35067" ry="8.3513" transform="rotate(140.299 34.1638 32.1885)" fill="#F8F8F6"/>
<ellipse cx="20.4415" cy="33.511" rx="3.1523" ry="8.20277" transform="rotate(-126.793 20.4415 33.511)" fill="#F8F8F6"/>
<line x1="9.50782" y1="34.9988" x2="12.2119" y2="34.9988" stroke="#D1B7FF" stroke-width="0.852057" stroke-linecap="round"/>
<line x1="7.73047" y1="37.2107" x2="10.4345" y2="37.2107" stroke="#D1B7FF" stroke-width="0.852057" stroke-linecap="round"/>
<path d="M66.4282 36.1641C67.5451 32.5558 68.6619 28.9046 69.7787 25.2104C70.9171 21.5162 72.0447 17.865 73.1615 14.2568C74.4287 14.2568 75.7066 14.2568 76.9953 14.2568C78.3054 14.2568 79.5941 14.2568 80.8613 14.2568C81.9781 17.865 83.0949 21.5162 84.2118 25.2104C85.3501 28.9046 86.4777 32.5558 87.5945 36.1641C86.671 36.1641 85.726 36.1641 84.7595 36.1641C83.8144 36.1641 82.8694 36.1641 81.9244 36.1641C81.7096 35.4768 81.5056 34.7895 81.3123 34.1022C81.119 33.3934 80.915 32.6954 80.7002 32.0081C79.4759 32.0081 78.241 32.0081 76.9953 32.0081C75.771 32.0081 74.5468 32.0081 73.3226 32.0081C73.1078 32.6954 72.9038 33.3934 72.7105 34.1022C72.5172 34.7895 72.3131 35.4768 72.0983 36.1641C71.1748 36.1641 70.2298 36.1641 69.2633 36.1641C68.3183 36.1641 67.3732 36.1641 66.4282 36.1641ZM74.7401 27.2078C75.4918 27.2078 76.2435 27.2078 76.9953 27.2078C77.7685 27.2078 78.5309 27.2078 79.2826 27.2078C78.9175 25.9407 78.5417 24.6627 78.1551 23.3741C77.7685 22.0854 77.3926 20.8075 77.0275 19.5403C76.6624 20.8075 76.2758 22.0854 75.8677 23.3741C75.4811 24.6627 75.1052 25.9407 74.7401 27.2078ZM87.9713 25.2104C87.9713 23.5566 88.229 22.0532 88.7445 20.7001C89.2815 19.3255 90.0332 18.1335 90.9997 17.124C91.9662 16.1146 93.126 15.3307 94.4791 14.7722C95.8322 14.2138 97.3249 13.9131 98.9572 13.8702C100.611 13.8272 102.372 14.085 104.241 14.6434C104.241 15.5454 104.241 16.4582 104.241 17.3818C104.241 18.2838 104.241 19.1859 104.241 20.088C102.974 19.4866 101.717 19.143 100.471 19.057C99.2256 18.9711 98.0981 19.143 97.0886 19.5725C96.0792 20.0021 95.2737 20.6894 94.6724 21.6344C94.071 22.5579 93.7703 23.7499 93.7703 25.2104C93.7703 26.6709 94.071 27.8737 94.6724 28.8187C95.2737 29.7422 96.0792 30.4188 97.0886 30.8483C98.0981 31.2779 99.2256 31.4497 100.471 31.3638C101.717 31.2779 102.974 30.9342 104.241 30.3329C104.241 31.2349 104.241 32.1477 104.241 33.0713C104.241 33.9733 104.241 34.8754 104.241 35.7775C102.372 36.3359 100.611 36.5936 98.9572 36.5507C97.3249 36.5077 95.8322 36.207 94.4791 35.6486C93.126 35.0902 91.9662 34.3062 90.9997 33.2968C90.0332 32.2873 89.2815 31.1061 88.7445 29.753C88.229 28.3784 87.9713 26.8642 87.9713 25.2104ZM111.777 36.1641C111.777 33.3934 111.777 30.6013 111.777 27.7877C111.777 24.9527 111.777 22.1498 111.777 19.3792C110.961 19.3792 110.134 19.3792 109.297 19.3792C108.459 19.3792 107.632 19.3792 106.816 19.3792C106.816 18.5416 106.816 17.6932 106.816 16.8341C106.816 15.9535 106.816 15.0944 106.816 14.2568C109.372 14.2568 111.96 14.2568 114.58 14.2568C117.2 14.2568 119.789 14.2568 122.344 14.2568C122.344 15.0944 122.344 15.9535 122.344 16.8341C122.344 17.6932 122.344 18.5416 122.344 19.3792C121.55 19.3792 120.734 19.3792 119.896 19.3792C119.058 19.3792 118.231 19.3792 117.415 19.3792C117.415 22.1498 117.415 24.9527 117.415 27.7877C117.415 30.6013 117.415 33.3934 117.415 36.1641C116.492 36.1641 115.557 36.1641 114.612 36.1641C113.667 36.1641 112.722 36.1641 111.777 36.1641ZM125.566 36.1641C125.566 32.5558 125.566 28.9046 125.566 25.2104C125.566 21.5162 125.566 17.865 125.566 14.2568C126.511 14.2568 127.456 14.2568 128.401 14.2568C129.346 14.2568 130.28 14.2568 131.204 14.2568C131.204 17.865 131.204 21.5162 131.204 25.2104C131.204 28.9046 131.204 32.5558 131.204 36.1641C130.28 36.1641 129.346 36.1641 128.401 36.1641C127.456 36.1641 126.511 36.1641 125.566 36.1641ZM145.328 36.6795C143.761 36.6795 142.311 36.4003 140.979 35.8419C139.648 35.262 138.499 34.4566 137.532 33.4257C136.566 32.3947 135.814 31.1812 135.277 29.7852C134.74 28.3676 134.471 26.832 134.471 25.1782C134.471 23.5244 134.74 21.9995 135.277 20.6034C135.814 19.2074 136.566 18.0046 137.532 16.9952C138.499 15.9643 139.648 15.1696 140.979 14.6112C142.311 14.0313 143.761 13.7413 145.328 13.7413C146.896 13.7413 148.335 14.0313 149.645 14.6112C150.977 15.1696 152.126 15.9643 153.093 16.9952C154.081 18.0046 154.843 19.2074 155.38 20.6034C155.917 21.9995 156.185 23.5244 156.185 25.1782C156.185 26.832 155.917 28.3676 155.38 29.7852C154.843 31.1812 154.081 32.3947 153.093 33.4257C152.126 34.4566 150.977 35.262 149.645 35.8419C148.335 36.4003 146.896 36.6795 145.328 36.6795ZM145.328 31.4604C146.381 31.4604 147.283 31.2027 148.035 30.6872C148.786 30.1503 149.366 29.4093 149.774 28.4643C150.204 27.5193 150.419 26.4239 150.419 25.1782C150.419 23.9325 150.204 22.8479 149.774 21.9243C149.366 21.0008 148.786 20.2813 148.035 19.7658C147.283 19.2289 146.381 18.9604 145.328 18.9604C144.298 18.9604 143.395 19.2181 142.622 19.7336C141.871 20.2491 141.28 20.9793 140.85 21.9243C140.442 22.8479 140.238 23.9325 140.238 25.1782C140.238 26.4239 140.442 27.5193 140.85 28.4643C141.28 29.4093 141.871 30.1503 142.622 30.6872C143.395 31.2027 144.298 31.4604 145.328 31.4604ZM159.289 36.1641C159.289 32.5558 159.289 28.9046 159.289 25.2104C159.289 21.5162 159.289 17.865 159.289 14.2568C160.234 14.2568 161.179 14.2568 162.124 14.2568C163.09 14.2568 164.035 14.2568 164.959 14.2568C166.097 16.2972 167.246 18.359 168.406 20.4424C169.587 22.5257 170.747 24.5876 171.885 26.6279C171.885 24.5876 171.885 22.5257 171.885 20.4424C171.885 18.359 171.885 16.2972 171.885 14.2568C172.809 14.2568 173.733 14.2568 174.656 14.2568C175.58 14.2568 176.503 14.2568 177.427 14.2568C177.427 17.865 177.427 21.5162 177.427 25.2104C177.427 28.9046 177.427 32.5558 177.427 36.1641C176.503 36.1641 175.558 36.1641 174.592 36.1641C173.647 36.1641 172.702 36.1641 171.757 36.1641C170.618 34.1237 169.459 32.0618 168.277 29.9785C167.117 27.8951 165.968 25.8333 164.83 23.7929C164.83 25.8333 164.83 27.8951 164.83 29.9785C164.83 32.0618 164.83 34.1237 164.83 36.1641C163.907 36.1641 162.983 36.1641 162.059 36.1641C161.136 36.1641 160.212 36.1641 159.289 36.1641ZM179.532 36.1641C180.649 32.5558 181.766 28.9046 182.883 25.2104C184.021 21.5162 185.149 17.865 186.266 14.2568C187.533 14.2568 188.811 14.2568 190.099 14.2568C191.41 14.2568 192.698 14.2568 193.965 14.2568C195.082 17.865 196.199 21.5162 197.316 25.2104C198.454 28.9046 199.582 32.5558 200.699 36.1641C199.775 36.1641 198.83 36.1641 197.864 36.1641C196.919 36.1641 195.974 36.1641 195.029 36.1641C194.814 35.4768 194.61 34.7895 194.416 34.1022C194.223 33.3934 194.019 32.6954 193.804 32.0081C192.58 32.0081 191.345 32.0081 190.099 32.0081C188.875 32.0081 187.651 32.0081 186.427 32.0081C186.212 32.6954 186.008 33.3934 185.815 34.1022C185.621 34.7895 185.417 35.4768 185.203 36.1641C184.279 36.1641 183.334 36.1641 182.367 36.1641C181.422 36.1641 180.477 36.1641 179.532 36.1641ZM187.844 27.2078C188.596 27.2078 189.348 27.2078 190.099 27.2078C190.873 27.2078 191.635 27.2078 192.387 27.2078C192.022 25.9407 191.646 24.6627 191.259 23.3741C190.873 22.0854 190.497 20.8075 190.132 19.5403C189.767 20.8075 189.38 22.0854 188.972 23.3741C188.585 24.6627 188.209 25.9407 187.844 27.2078ZM202.8 36.1641C202.8 32.5558 202.8 28.9046 202.8 25.2104C202.8 21.5162 202.8 17.865 202.8 14.2568C204.089 14.2568 205.377 14.2568 206.666 14.2568C207.976 14.2568 209.276 14.2568 210.564 14.2568C212.197 14.2568 213.625 14.5682 214.849 15.1911C216.073 15.7924 217.018 16.6515 217.684 17.7684C218.371 18.8637 218.715 20.1524 218.715 21.6344C218.715 22.9016 218.457 24.0291 217.942 25.0171C217.426 26.0051 216.728 26.8105 215.848 27.4334C216.707 28.8724 217.566 30.3329 218.425 31.8148C219.306 33.2753 220.176 34.7251 221.035 36.1641C219.982 36.1641 218.93 36.1641 217.877 36.1641C216.825 36.1641 215.773 36.1641 214.72 36.1641C214.054 34.9613 213.378 33.7371 212.691 32.4914C212.025 31.2457 211.348 30.0214 210.661 28.8187C210.296 28.8187 209.92 28.8187 209.533 28.8187C209.168 28.8187 208.803 28.8187 208.438 28.8187C208.438 30.0214 208.438 31.2457 208.438 32.4914C208.438 33.7371 208.438 34.9613 208.438 36.1641C207.514 36.1641 206.58 36.1641 205.635 36.1641C204.69 36.1641 203.745 36.1641 202.8 36.1641ZM210.564 19.347C210.221 19.347 209.866 19.347 209.501 19.347C209.157 19.347 208.803 19.347 208.438 19.347C208.438 20.1417 208.438 20.9363 208.438 21.731C208.438 22.5257 208.438 23.3204 208.438 24.1151C208.846 24.1151 209.254 24.1151 209.662 24.1151C210.07 24.1151 210.478 24.1151 210.886 24.1151C211.531 24.1151 212.057 23.8895 212.465 23.4385C212.873 22.966 213.077 22.3968 213.077 21.731C213.077 21.0437 212.852 20.4746 212.401 20.0235C211.971 19.5725 211.359 19.347 210.564 19.347ZM226.727 36.1641C226.727 34.8539 226.727 33.533 226.727 32.2014C226.727 30.8698 226.727 29.5489 226.727 28.2388C225.589 25.9407 224.429 23.6103 223.248 21.2478C222.067 18.8852 220.907 16.5549 219.769 14.2568C220.757 14.2568 221.755 14.2568 222.765 14.2568C223.774 14.2568 224.773 14.2568 225.761 14.2568C226.384 15.5669 227.017 16.8878 227.662 18.2194C228.328 19.5296 228.972 20.8397 229.595 22.1498C230.218 20.8397 230.851 19.5296 231.496 18.2194C232.14 16.8878 232.773 15.5669 233.396 14.2568C234.384 14.2568 235.372 14.2568 236.36 14.2568C237.348 14.2568 238.336 14.2568 239.324 14.2568C238.186 16.5549 237.026 18.8852 235.845 21.2478C234.663 23.6103 233.504 25.9407 232.365 28.2388C232.365 29.5489 232.365 30.8698 232.365 32.2014C232.365 33.533 232.365 34.8539 232.365 36.1641C231.442 36.1641 230.508 36.1641 229.563 36.1641C228.618 36.1641 227.672 36.1641 226.727 36.1641Z" fill="#1E1E1E"/>
<path d="M125.447 9.04297C125.447 7.42383 126.731 6.1049 128.337 6.04687L128.337 6.04492L128.408 6.04492C128.421 6.04476 128.434 6.04395 128.447 6.04395C128.46 6.04395 128.472 6.04476 128.485 6.04492L130.037 6.04492C130.815 6.04505 131.446 6.6768 131.446 7.45508L131.446 9.00391C131.446 9.01676 131.447 9.03008 131.447 9.04297C131.447 9.05601 131.446 9.06903 131.446 9.08203L131.446 9.2373L131.439 9.2373C131.339 10.8025 130.038 12.041 128.447 12.041C126.79 12.041 125.447 10.6988 125.447 9.04297Z" fill="url(#paint0_linear_102_243)"/>
<path d="M28.8984 11.7056C28.8985 9.79095 30.4166 8.23215 32.3154 8.16357L32.3154 8.16162L32.3555 8.16162C32.3853 8.16087 32.4153 8.15967 32.4453 8.15967C32.4693 8.15967 32.4937 8.16115 32.5176 8.16162L34.583 8.16162C35.3612 8.16186 35.9922 8.79259 35.9922 9.5708L35.9922 11.6694C35.9923 11.6815 35.9932 11.6935 35.9932 11.7056C35.9932 11.7176 35.9923 11.7297 35.9922 11.7417L35.9922 11.936L35.9844 11.936C35.8656 13.7869 34.3271 15.2515 32.4453 15.2515C30.4863 15.2512 28.8984 13.6637 28.8984 11.7056Z" fill="url(#paint1_linear_102_243)"/>
<defs>
<linearGradient id="paint0_linear_102_243" x1="134.986" y1="11.5507" x2="134.663" y2="6.16355" gradientUnits="userSpaceOnUse">
<stop offset="0.18941" stop-color="#FA785B"/>
<stop offset="1" stop-color="#FF3761"/>
</linearGradient>
<linearGradient id="paint1_linear_102_243" x1="40.1774" y1="14.6717" x2="39.7964" y2="8.30097" gradientUnits="userSpaceOnUse">
<stop offset="0.18941" stop-color="#FA785B"/>
<stop offset="1" stop-color="#FF3761"/>
</linearGradient>
</defs>
</svg>
