<svg width="369" height="348" viewBox="0 0 369 348" fill="none" xmlns="http://www.w3.org/2000/svg">
<ellipse cx="190.406" cy="150.429" rx="34.8886" ry="90.6685" transform="rotate(60.2352 190.406 150.429)" fill="#F8F8F6"/>
<ellipse cx="284.572" cy="254.578" rx="35.5001" ry="88.4813" transform="rotate(140.299 284.572 254.578)" fill="#F8F8F6"/>
<ellipse cx="139.186" cy="268.59" rx="33.3983" ry="86.9076" transform="rotate(-126.793 139.186 268.59)" fill="#F8F8F6"/>
<line x1="23.3438" y1="284.354" x2="51.9932" y2="284.354" stroke="#D1B7FF" stroke-width="9.02747" stroke-linecap="round"/>
<line x1="4.51374" y1="307.789" x2="33.1631" y2="307.789" stroke="#D1B7FF" stroke-width="9.02747" stroke-linecap="round"/>
<path d="M228.782 37.5654C228.782 17.2815 244.868 0.754882 264.986 0.0273422V0.0175765L265.247 0.0175765C265.62 0.00664359 265.994 -1.6266e-06 266.37 -1.64302e-06C266.745 -1.65941e-06 267.118 0.00667404 267.491 0.0175764L289.01 0.0175755C297.257 0.0176972 303.942 6.70272 303.942 14.9492V36.5205C303.951 36.8677 303.957 37.216 303.957 37.5654C303.957 37.9151 303.951 38.264 303.942 38.6113V40.0117L303.875 40.0117C302.614 59.6186 286.306 75.1317 266.37 75.1318C245.611 75.1318 228.782 58.3125 228.782 37.5654Z" fill="url(#paint0_linear_346_1223)"/>
<defs>
<linearGradient id="paint0_linear_346_1223" x1="348.292" y1="68.9895" x2="344.256" y2="1.49692" gradientUnits="userSpaceOnUse">
<stop offset="0.18941" stop-color="#FA785B"/>
<stop offset="1" stop-color="#FF3761"/>
</linearGradient>
</defs>
</svg>
