<svg width="135" height="32" viewBox="0 0 135 32" fill="none" xmlns="http://www.w3.org/2000/svg">
<circle cx="47.965" cy="4.47887" r="2.16222" fill="#FA785B"/>
<path d="M0 24C0.859729 21.2224 1.71946 18.4118 2.57919 15.568C3.45545 12.7243 4.32344 9.91368 5.18317 7.13609C6.15863 7.13609 7.14236 7.13609 8.13435 7.13609C9.14288 7.13609 10.1349 7.13609 11.1103 7.13609C11.9701 9.91368 12.8298 12.7243 13.6895 15.568C14.5658 18.4118 15.4338 21.2224 16.2935 24C15.5826 24 14.8551 24 14.1111 24C13.3837 24 12.6562 24 11.9287 24C11.7634 23.4709 11.6063 22.9419 11.4575 22.4128C11.3087 21.8672 11.1517 21.3299 10.9863 20.8008C10.0439 20.8008 9.09328 20.8008 8.13435 20.8008C7.19196 20.8008 6.24957 20.8008 5.30717 20.8008C5.14184 21.3299 4.98477 21.8672 4.83597 22.4128C4.68717 22.9419 4.53011 23.4709 4.36478 24C3.65385 24 2.92638 24 2.18239 24C1.45493 24 0.727463 24 0 24ZM6.39836 17.1056C6.97703 17.1056 7.55569 17.1056 8.13435 17.1056C8.72955 17.1056 9.31648 17.1056 9.89515 17.1056C9.61408 16.1302 9.32475 15.1464 9.02715 14.1545C8.72955 13.1625 8.44022 12.1787 8.15916 11.2033C7.87809 12.1787 7.58049 13.1625 7.26636 14.1545C6.96876 15.1464 6.67943 16.1302 6.39836 17.1056ZM16.5836 15.568C16.5836 14.295 16.782 13.1377 17.1787 12.0961C17.5921 11.0379 18.1707 10.1203 18.9147 9.34328C19.6587 8.56622 20.5515 7.96276 21.5931 7.53289C22.6347 7.10303 23.7838 6.87156 25.0403 6.83849C26.3134 6.80543 27.6691 7.00383 29.1075 7.43369C29.1075 8.12809 29.1075 8.83075 29.1075 9.54168C29.1075 10.2361 29.1075 10.9305 29.1075 11.6249C28.132 11.1619 27.1648 10.8974 26.2059 10.8313C25.247 10.7651 24.379 10.8974 23.6019 11.2281C22.8249 11.5587 22.2049 12.0878 21.7419 12.8153C21.279 13.5262 21.0475 14.4438 21.0475 15.568C21.0475 16.6923 21.279 17.6182 21.7419 18.3456C22.2049 19.0566 22.8249 19.5774 23.6019 19.908C24.379 20.2387 25.247 20.371 26.2059 20.3048C27.1648 20.2387 28.132 19.9742 29.1075 19.5112C29.1075 20.2056 29.1075 20.9083 29.1075 21.6192C29.1075 22.3136 29.1075 23.008 29.1075 23.7024C27.6691 24.1323 26.3134 24.3307 25.0403 24.2976C23.7838 24.2645 22.6347 24.0331 21.5931 23.6032C20.5515 23.1733 19.6587 22.5699 18.9147 21.7928C18.1707 21.0157 17.5921 20.1064 17.1787 19.0648C16.782 18.0067 16.5836 16.8411 16.5836 15.568ZM34.9091 24C34.9091 21.8672 34.9091 19.7179 34.9091 17.552C34.9091 15.3696 34.9091 13.2121 34.9091 11.0793C34.2808 11.0793 33.6443 11.0793 32.9995 11.0793C32.3547 11.0793 31.7182 11.0793 31.0899 11.0793C31.0899 10.4345 31.0899 9.78141 31.0899 9.12008C31.0899 8.44222 31.0899 7.78089 31.0899 7.13609C33.0574 7.13609 35.0496 7.13609 37.0667 7.13609C39.0837 7.13609 41.076 7.13609 43.0435 7.13609C43.0435 7.78089 43.0435 8.44222 43.0435 9.12008C43.0435 9.78141 43.0435 10.4345 43.0435 11.0793C42.4317 11.0793 41.8035 11.0793 41.1587 11.0793C40.5139 11.0793 39.8773 11.0793 39.2491 11.0793C39.2491 13.2121 39.2491 15.3696 39.2491 17.552C39.2491 19.7179 39.2491 21.8672 39.2491 24C38.5381 24 37.8189 24 37.0915 24C36.364 24 35.6366 24 34.9091 24ZM45.5232 24C45.5232 21.2224 45.5232 18.4118 45.5232 15.568C45.5232 12.7243 45.5232 9.91368 45.5232 7.13609C46.2507 7.13609 46.9782 7.13609 47.7056 7.13609C48.4331 7.13609 49.1523 7.13609 49.8632 7.13609C49.8632 9.91368 49.8632 12.7243 49.8632 15.568C49.8632 18.4118 49.8632 21.2224 49.8632 24C49.1523 24 48.4331 24 47.7056 24C46.9782 24 46.2507 24 45.5232 24ZM60.7362 24.3968C59.5293 24.3968 58.4133 24.1819 57.3882 23.752C56.3632 23.3056 55.4786 22.6856 54.7347 21.892C53.9907 21.0984 53.412 20.1643 52.9987 19.0896C52.5853 17.9984 52.3787 16.8163 52.3787 15.5432C52.3787 14.2702 52.5853 13.0963 52.9987 12.0217C53.412 10.947 53.9907 10.0211 54.7347 9.24408C55.4786 8.45049 56.3632 7.83876 57.3882 7.40889C58.4133 6.96249 59.5293 6.7393 60.7362 6.7393C61.9431 6.7393 63.0509 6.96249 64.0594 7.40889C65.0845 7.83876 65.969 8.45049 66.713 9.24408C67.4735 10.0211 68.0604 10.947 68.4738 12.0217C68.8871 13.0963 69.0938 14.2702 69.0938 15.5432C69.0938 16.8163 68.8871 17.9984 68.4738 19.0896C68.0604 20.1643 67.4735 21.0984 66.713 21.892C65.969 22.6856 65.0845 23.3056 64.0594 23.752C63.0509 24.1819 61.9431 24.3968 60.7362 24.3968ZM60.7362 20.3792C61.5463 20.3792 62.2407 20.1808 62.8194 19.784C63.3981 19.3707 63.8445 18.8003 64.1586 18.0728C64.4893 17.3454 64.6546 16.5022 64.6546 15.5432C64.6546 14.5843 64.4893 13.7494 64.1586 13.0385C63.8445 12.3275 63.3981 11.7737 62.8194 11.3769C62.2407 10.9635 61.5463 10.7569 60.7362 10.7569C59.9426 10.7569 59.2482 10.9553 58.653 11.3521C58.0744 11.7489 57.6197 12.311 57.289 13.0385C56.9749 13.7494 56.8178 14.5843 56.8178 15.5432C56.8178 16.5022 56.9749 17.3454 57.289 18.0728C57.6197 18.8003 58.0744 19.3707 58.653 19.784C59.2482 20.1808 59.9426 20.3792 60.7362 20.3792ZM71.4827 24C71.4827 21.2224 71.4827 18.4118 71.4827 15.568C71.4827 12.7243 71.4827 9.91368 71.4827 7.13609C72.2102 7.13609 72.9376 7.13609 73.6651 7.13609C74.4091 7.13609 75.1365 7.13609 75.8475 7.13609C76.7237 8.70675 77.6083 10.2939 78.5011 11.8977C79.4104 13.5014 80.3032 15.0886 81.1794 16.6592C81.1794 15.0886 81.1794 13.5014 81.1794 11.8977C81.1794 10.2939 81.1794 8.70675 81.1794 7.13609C81.8904 7.13609 82.6013 7.13609 83.3122 7.13609C84.0232 7.13609 84.7341 7.13609 85.445 7.13609C85.445 9.91368 85.445 12.7243 85.445 15.568C85.445 18.4118 85.445 21.2224 85.445 24C84.7341 24 84.0066 24 83.2626 24C82.5352 24 81.8077 24 81.0802 24C80.204 22.4293 79.3112 20.8422 78.4019 19.2384C77.5091 17.6347 76.6245 16.0475 75.7483 14.4769C75.7483 16.0475 75.7483 17.6347 75.7483 19.2384C75.7483 20.8422 75.7483 22.4293 75.7483 24C75.0373 24 74.3264 24 73.6155 24C72.9046 24 72.1936 24 71.4827 24ZM87.0659 24C87.9256 21.2224 88.7854 18.4118 89.6451 15.568C90.5214 12.7243 91.3894 9.91368 92.2491 7.13609C93.2246 7.13609 94.2083 7.13609 95.2003 7.13609C96.2088 7.13609 97.2008 7.13609 98.1763 7.13609C99.036 9.91368 99.8957 12.7243 100.755 15.568C101.632 18.4118 102.5 21.2224 103.359 24C102.648 24 101.921 24 101.177 24C100.45 24 99.7221 24 98.9947 24C98.8293 23.4709 98.6723 22.9419 98.5235 22.4128C98.3747 21.8672 98.2176 21.3299 98.0523 20.8008C97.1099 20.8008 96.1592 20.8008 95.2003 20.8008C94.2579 20.8008 93.3155 20.8008 92.3731 20.8008C92.2078 21.3299 92.0507 21.8672 91.9019 22.4128C91.7531 22.9419 91.596 23.4709 91.4307 24C90.7198 24 89.9923 24 89.2483 24C88.5208 24 87.7934 24 87.0659 24ZM93.4643 17.1056C94.0429 17.1056 94.6216 17.1056 95.2003 17.1056C95.7955 17.1056 96.3824 17.1056 96.9611 17.1056C96.68 16.1302 96.3907 15.1464 96.0931 14.1545C95.7955 13.1625 95.5061 12.1787 95.2251 11.2033C94.944 12.1787 94.6464 13.1625 94.3323 14.1545C94.0347 15.1464 93.7453 16.1302 93.4643 17.1056ZM104.977 24C104.977 21.2224 104.977 18.4118 104.977 15.568C104.977 12.7243 104.977 9.91368 104.977 7.13609C105.969 7.13609 106.961 7.13609 107.953 7.13609C108.962 7.13609 109.962 7.13609 110.954 7.13609C112.21 7.13609 113.31 7.37583 114.252 7.85529C115.195 8.31822 115.922 8.97955 116.435 9.83928C116.964 10.6825 117.228 11.6745 117.228 12.8153C117.228 13.7907 117.03 14.6587 116.633 15.4192C116.236 16.1798 115.699 16.7998 115.021 17.2792C115.682 18.387 116.344 19.5112 117.005 20.652C117.683 21.7763 118.352 22.8923 119.014 24C118.204 24 117.394 24 116.583 24C115.773 24 114.963 24 114.153 24C113.64 23.0741 113.12 22.1317 112.591 21.1728C112.078 20.2139 111.557 19.2715 111.028 18.3456C110.747 18.3456 110.458 18.3456 110.16 18.3456C109.879 18.3456 109.598 18.3456 109.317 18.3456C109.317 19.2715 109.317 20.2139 109.317 21.1728C109.317 22.1317 109.317 23.0741 109.317 24C108.606 24 107.887 24 107.159 24C106.432 24 105.705 24 104.977 24ZM110.954 11.0545C110.689 11.0545 110.416 11.0545 110.135 11.0545C109.871 11.0545 109.598 11.0545 109.317 11.0545C109.317 11.6662 109.317 12.2779 109.317 12.8897C109.317 13.5014 109.317 14.1131 109.317 14.7249C109.631 14.7249 109.945 14.7249 110.259 14.7249C110.574 14.7249 110.888 14.7249 111.202 14.7249C111.698 14.7249 112.103 14.5513 112.417 14.2041C112.731 13.8403 112.888 13.4022 112.888 12.8897C112.888 12.3606 112.715 11.9225 112.367 11.5753C112.037 11.2281 111.566 11.0545 110.954 11.0545ZM123.396 24C123.396 22.9915 123.396 21.9747 123.396 20.9496C123.396 19.9246 123.396 18.9078 123.396 17.8992C122.52 16.1302 121.627 14.3363 120.718 12.5177C119.808 10.699 118.915 8.90515 118.039 7.13609C118.8 7.13609 119.569 7.13609 120.346 7.13609C121.123 7.13609 121.891 7.13609 122.652 7.13609C123.131 8.14462 123.619 9.16142 124.115 10.1865C124.628 11.195 125.124 12.2035 125.603 13.2121C126.083 12.2035 126.57 11.195 127.066 10.1865C127.562 9.16142 128.05 8.14462 128.53 7.13609C129.29 7.13609 130.051 7.13609 130.811 7.13609C131.572 7.13609 132.332 7.13609 133.093 7.13609C132.216 8.90515 131.324 10.699 130.414 12.5177C129.505 14.3363 128.612 16.1302 127.736 17.8992C127.736 18.9078 127.736 19.9246 127.736 20.9496C127.736 21.9747 127.736 22.9915 127.736 24C127.025 24 126.306 24 125.578 24C124.851 24 124.123 24 123.396 24Z" fill="white"/>
</svg>
