<svg width="30" height="30" viewBox="0 0 30 30" fill="none" xmlns="http://www.w3.org/2000/svg">
<path d="M14.998 30C6.89811 29.9998 0.299119 23.5769 0.0117175 15.5459L0.00976436 15.5459L0.00976436 15.4902C0.0045363 15.3275 0.000977173 15.1641 0.000975251 15C0.000975237 14.836 0.00454196 14.6725 0.00976427 14.5098L0.00976323 2.65821C0.0100149 1.19043 1.20013 0.000998153 2.66797 0.000978952L14.9209 0.00097788C14.9466 0.000848178 14.9723 1.31342e-06 14.998 1.31117e-06C15.0236 1.30893e-06 15.0496 0.000850077 15.0752 0.000977867L15.9775 0.000977788L15.9775 0.0332044C23.8041 0.537667 29.9961 7.04485 29.9961 15C29.996 23.2841 23.2809 30 14.998 30Z" fill="url(#paint0_linear_364_838)"/>
<defs>
<linearGradient id="paint0_linear_364_838" x1="27.5439" y1="-17.6929" x2="0.598877" y2="-16.0811" gradientUnits="userSpaceOnUse">
<stop offset="0.18941" stop-color="#FA785B"/>
<stop offset="1" stop-color="#FF3761"/>
</linearGradient>
</defs>
</svg>
