<svg width="25" height="25" viewBox="0 0 25 25" fill="none" xmlns="http://www.w3.org/2000/svg">
<path d="M25 6.55002C25.001 6.38551 24.9694 6.22243 24.9072 6.07014C24.845 5.91784 24.7534 5.77932 24.6375 5.66252L19.3375 0.362521C19.2207 0.246669 19.0822 0.155013 18.9299 0.0928068C18.7776 0.0306011 18.6145 -0.000930223 18.45 2.08929e-05C18.2855 -0.000930223 18.1224 0.0306011 17.9701 0.0928068C17.8178 0.155013 17.6793 0.246669 17.5625 0.362521L14.025 3.90002L0.362521 17.5625C0.246669 17.6793 0.155013 17.8178 0.0928068 17.9701C0.0306011 18.1224 -0.000930223 18.2855 2.08929e-05 18.45V23.75C2.08929e-05 24.0815 0.131717 24.3995 0.366137 24.6339C0.600558 24.8683 0.9185 25 1.25002 25H6.55002C6.72493 25.0095 6.89989 24.9822 7.06355 24.9197C7.2272 24.8573 7.37591 24.7611 7.50002 24.6375L21.0875 10.975L24.6375 7.50002C24.7514 7.37873 24.8444 7.23932 24.9125 7.08752C24.9246 6.98788 24.9246 6.88716 24.9125 6.78752C24.9184 6.72933 24.9184 6.67071 24.9125 6.61252L25 6.55002ZM6.03752 22.5H2.50002V18.9625L14.9125 6.55002L18.45 10.0875L6.03752 22.5ZM20.2125 8.32502L16.675 4.78752L18.45 3.02502L21.975 6.55002L20.2125 8.32502Z" fill="white"/>
</svg>
