<svg width="62" height="80" viewBox="0 0 62 80" fill="none" xmlns="http://www.w3.org/2000/svg">
<path d="M30.7583 35.1524C34.2345 35.1524 37.6327 34.1215 40.5231 32.1902C43.4135 30.2589 45.6663 27.5139 46.9966 24.3023C48.3269 21.0907 48.6749 17.5567 47.9968 14.1472C47.3186 10.7378 45.6446 7.60602 43.1865 5.14795C40.7285 2.68988 37.5967 1.01591 34.1872 0.337729C30.7778 -0.340451 27.2438 0.00761542 24.0322 1.33791C20.8206 2.66821 18.0755 4.921 16.1443 7.81138C14.213 10.7018 13.1821 14.0999 13.1821 17.5762C13.1821 22.2377 15.0339 26.7082 18.3301 30.0044C21.6262 33.3006 26.0968 35.1524 30.7583 35.1524ZM30.7583 8.78809C32.4964 8.78809 34.1955 9.30351 35.6407 10.2692C37.0859 11.2348 38.2123 12.6073 38.8774 14.2131C39.5426 15.8189 39.7166 17.5859 39.3775 19.2907C39.0384 20.9954 38.2015 22.5613 36.9724 23.7903C35.7434 25.0193 34.1775 25.8563 32.4728 26.1954C30.7681 26.5345 29.0011 26.3605 27.3953 25.6953C25.7894 25.0302 24.4169 23.9038 23.4513 22.4586C22.4856 21.0134 21.9702 19.3143 21.9702 17.5762C21.9702 15.2454 22.8961 13.0102 24.5442 11.3621C26.1923 9.71398 28.4276 8.78809 30.7583 8.78809ZM30.7583 43.9404C22.6007 43.9404 14.7772 47.181 9.0089 52.9493C3.2406 58.7176 0 66.5411 0 74.6987C0 75.8641 0.462943 76.9818 1.28699 77.8058C2.11103 78.6299 3.22867 79.0928 4.39404 79.0928C5.55942 79.0928 6.67706 78.6299 7.5011 77.8058C8.32514 76.9818 8.78809 75.8641 8.78809 74.6987C8.78809 68.8719 11.1028 63.2837 15.223 59.1635C19.3432 55.0432 24.9314 52.7285 30.7583 52.7285C36.5852 52.7285 42.1734 55.0432 46.2936 59.1635C50.4138 63.2837 52.7285 68.8719 52.7285 74.6987C52.7285 75.8641 53.1915 76.9818 54.0155 77.8058C54.8395 78.6299 55.9572 79.0928 57.1226 79.0928C58.2879 79.0928 59.4056 78.6299 60.2296 77.8058C61.0537 76.9818 61.5166 75.8641 61.5166 74.6987C61.5166 66.5411 58.276 58.7176 52.5077 52.9493C46.7394 47.181 38.9159 43.9404 30.7583 43.9404Z" fill="url(#paint0_linear_215_4908)"/>
<defs>
<linearGradient id="paint0_linear_215_4908" x1="5.02921" y1="125.739" x2="60.3687" y2="123.164" gradientUnits="userSpaceOnUse">
<stop offset="0.18941" stop-color="#FA785B"/>
<stop offset="1" stop-color="#FF3761"/>
</linearGradient>
</defs>
</svg>
