<svg width="25" height="28" viewBox="0 0 25 28" fill="none" xmlns="http://www.w3.org/2000/svg">
<path d="M12.5 0C19.4037 0 25 5.59625 25 12.5C25 19.4037 19.4037 25 12.5 25C5.59625 25 0 19.4037 0 12.5C0 5.59625 5.59625 0 12.5 0ZM12.5 2.5C9.84783 2.5 7.3043 3.55357 5.42893 5.42893C3.55357 7.3043 2.5 9.84783 2.5 12.5C2.5 15.1522 3.55357 17.6957 5.42893 19.5711C7.3043 21.4464 9.84783 22.5 12.5 22.5C15.1522 22.5 17.6957 21.4464 19.5711 19.5711C21.4464 17.6957 22.5 15.1522 22.5 12.5C22.5 9.84783 21.4464 7.3043 19.5711 5.42893C17.6957 3.55357 15.1522 2.5 12.5 2.5ZM12.5 5C12.8062 5.00004 13.1017 5.11244 13.3305 5.31589C13.5593 5.51934 13.7054 5.79969 13.7413 6.10375L13.75 6.25V11.9825L17.1337 15.3663C17.3579 15.5912 17.4881 15.893 17.4978 16.2105C17.5075 16.5279 17.396 16.8371 17.1859 17.0753C16.9759 17.3136 16.6831 17.4629 16.3669 17.493C16.0508 17.5231 15.735 17.4318 15.4838 17.2375L15.3663 17.1337L11.6163 13.3837C11.422 13.1893 11.2972 12.9363 11.2612 12.6637L11.25 12.5V6.25C11.25 5.91848 11.3817 5.60054 11.6161 5.36612C11.8505 5.1317 12.1685 5 12.5 5Z" fill="white"/>
</svg>
