<svg width="24" height="27" viewBox="0 0 24 27" fill="none" xmlns="http://www.w3.org/2000/svg">
<path d="M18.9525 9.77788L18.295 10.9379C17.6763 12.0291 17.3663 12.5741 16.6925 12.6216C16.0175 12.6691 15.7325 12.2791 15.1613 11.4991C14.5263 10.6254 14.119 9.60725 13.9763 8.53663C13.8425 7.53788 13.7763 7.03913 13.6138 6.79288C13.3563 6.40163 12.8363 6.18663 12.4488 5.95913C11.4275 5.35913 10.9163 5.05913 10.7825 4.54788C10.6475 4.03913 10.9425 3.51913 11.5325 2.47913C12.1225 1.43913 12.4175 0.919128 12.9188 0.782878C13.4188 0.645378 13.9313 0.946628 14.9525 1.54663C15.34 1.77538 15.7825 2.12413 16.245 2.15663C16.535 2.17663 16.9938 1.98538 17.91 1.60413C18.8929 1.19261 19.9655 1.04191 21.0238 1.16663C21.9738 1.28038 22.4488 1.33788 22.7438 1.95413C23.0413 2.57288 22.7313 3.11788 22.1125 4.20913L21.455 5.36663M18.9525 9.77788L19.495 10.0966C19.7798 10.2634 20.0949 10.3716 20.4221 10.4151C20.7492 10.4585 21.0817 10.4362 21.4001 10.3494C21.7185 10.2627 22.0163 10.1133 22.2763 9.90998C22.5362 9.70666 22.7529 9.45352 22.9138 9.16538C23.2467 8.58076 23.3372 7.88896 23.1659 7.23838C22.9946 6.5878 22.5751 6.03026 21.9975 5.68538L21.455 5.36663M18.9525 9.77788L21.455 5.36663M5.75 14.5004C5.75 15.1634 5.48661 15.7993 5.01777 16.2681C4.54893 16.737 3.91304 17.0004 3.25 17.0004C2.58696 17.0004 1.95107 16.737 1.48223 16.2681C1.01339 15.7993 0.75 15.1634 0.75 14.5004C0.75 13.8373 1.01339 13.2015 1.48223 12.7326C1.95107 12.2638 2.58696 12.0004 3.25 12.0004C3.91304 12.0004 4.54893 12.2638 5.01777 12.7326C5.48661 13.2015 5.75 13.8373 5.75 14.5004Z" stroke="white" stroke-width="1.5"/>
<path d="M4.5 13.2505L13.25 7.00049" stroke="white" stroke-width="1.5" stroke-linejoin="round"/>
<path d="M5.75 25.7505H14.5M4.5 17.0005L10.75 25.7505" stroke="white" stroke-width="1.5" stroke-linecap="round" stroke-linejoin="round"/>
</svg>
