<svg width="35" height="35" viewBox="0 0 35 35" fill="none" xmlns="http://www.w3.org/2000/svg">
<path d="M17.4971 35C8.04716 35 0.348388 27.507 0.0126938 18.1377L0.00976415 18.1377L0.00976414 18.0605C0.00390475 17.8744 2.3012e-06 17.6876 -1.5299e-06 17.5C-1.5462e-06 17.3135 0.00397335 17.1275 0.00976405 16.9424L0.0097628 2.65918C0.00976267 1.19118 1.19996 0.000979517 2.66797 0.000979389L17.4219 0.000978099C17.4469 0.000871285 17.472 1.53183e-06 17.4971 1.52964e-06C17.5221 1.52745e-06 17.5472 0.000871276 17.5723 0.000978086L18.6377 0.000977992L18.6377 0.0380874C27.7694 0.625889 34.9941 8.21848 34.9941 17.5C34.994 27.1647 27.1604 34.9999 17.4971 35Z" fill="white"/>
</svg>
