<svg width="45" height="45" viewBox="0 0 45 45" fill="none" xmlns="http://www.w3.org/2000/svg">
<path d="M22.499 45C10.3468 45 0.445775 35.3656 0.0156269 23.3184L0.0126972 23.3184L0.0126972 23.2334C0.00492288 22.9902 1.94551e-06 22.746 1.96693e-06 22.501C1.9883e-06 22.2565 0.0049573 22.0131 0.0126973 21.7705L0.0126986 7.12988C0.012699 3.19232 3.20502 -3.65358e-06 7.14258 -3.30934e-06L23.9658 -1.83861e-06L23.9658 0.051756C35.7076 0.807632 44.997 10.5682 44.9971 22.501C44.9971 34.9266 34.9246 44.9998 22.499 45Z" fill="url(#paint0_linear_535_270)"/>
<defs>
<linearGradient id="paint0_linear_535_270" x1="41.3184" y1="-26.5394" x2="0.896641" y2="-24.1212" gradientUnits="userSpaceOnUse">
<stop offset="0.18941" stop-color="#FA785B"/>
<stop offset="1" stop-color="#FF3761"/>
</linearGradient>
</defs>
</svg>
