<svg width="30" height="30" viewBox="0 0 30 30" fill="none" xmlns="http://www.w3.org/2000/svg">
<path d="M29.2984 7.40523L22.5948 0.703146C22.3719 0.480225 22.1073 0.303391 21.8161 0.182744C21.5249 0.0620967 21.2127 0 20.8975 0C20.5823 0 20.2702 0.0620967 19.9789 0.182744C19.6877 0.303391 19.4231 0.480225 19.2002 0.703146L0.703521 19.1999C0.479687 19.4219 0.302226 19.6863 0.181453 19.9775C0.06068 20.2688 -0.000995171 20.5811 1.21426e-05 20.8964V27.6C1.21426e-05 28.2365 0.252872 28.847 0.702964 29.297C1.15306 29.7471 1.76351 30 2.40004 30H27.6003C27.9186 30 28.2238 29.8736 28.4489 29.6485C28.6739 29.4235 28.8004 29.1182 28.8004 28.8C28.8004 28.4817 28.6739 28.1765 28.4489 27.9514C28.2238 27.7264 27.9186 27.6 27.6003 27.6H12.4982L29.2984 10.7998C29.5213 10.5769 29.6981 10.3123 29.8188 10.0211C29.9394 9.72985 30.0015 9.41772 30.0015 9.1025C30.0015 8.78727 29.9394 8.47514 29.8188 8.18392C29.6981 7.8927 29.5213 7.6281 29.2984 7.40523ZM15.6002 7.69623L18.1037 10.1998L5.40008 22.9034L2.89655 20.3999L15.6002 7.69623ZM2.40004 27.6V23.2964L6.70359 27.6H2.40004ZM9.60013 27.1035L7.0981 24.5999L19.8003 11.8963L22.3038 14.3998L9.60013 27.1035ZM24.0003 12.7033L17.2982 5.99971L20.8983 2.39967L27.6003 9.10325L24.0003 12.7033Z" fill="#B3B3B3"/>
</svg>
