<svg width="45" height="45" viewBox="0 0 45 45" fill="none" xmlns="http://www.w3.org/2000/svg">
<path d="M-9.83419e-07 22.499C-1.51461e-06 10.3468 9.63443 0.445774 21.6816 0.0156241L21.6816 0.0126944L21.7666 0.0126944C22.0097 0.00492 22.254 -9.72753e-07 22.499 -9.83464e-07C22.7435 -9.94148e-07 22.9869 0.00495429 23.2295 0.0126943L37.8701 0.0126937C41.8077 0.0126935 45 3.20502 45 7.14258L45 23.9658L44.9482 23.9658C44.1924 35.7076 34.4318 44.997 22.499 44.9971C10.0734 44.9971 0.000192165 34.9246 -9.83419e-07 22.499Z" fill="url(#paint0_linear_535_276)"/>
<defs>
<linearGradient id="paint0_linear_535_276" x1="3.49134e-06" y1="37.5182" x2="10.224" y2="-1.29902" gradientUnits="userSpaceOnUse">
<stop stop-color="#FFDBA7"/>
<stop offset="1" stop-color="#FFAD36"/>
</linearGradient>
</defs>
</svg>
